<?xml version="1.0" encoding="UTF-8" standalone="no"?>
<!-- Created with Inkscape (http://www.inkscape.org/) -->

<svg
   xmlns:dc="http://purl.org/dc/elements/1.1/"
   xmlns:cc="http://creativecommons.org/ns#"
   xmlns:rdf="http://www.w3.org/1999/02/22-rdf-syntax-ns#"
   xmlns:svg="http://www.w3.org/2000/svg"
   xmlns="http://www.w3.org/2000/svg"
   version="1.1"
   width="744.09448"
   height="1052.3622"
   id="svg2">
  <defs
     id="defs4" />
  <metadata
     id="metadata7">
    <rdf:RDF>
      <cc:Work
         rdf:about="">
        <dc:format>image/svg+xml</dc:format>
        <dc:type
           rdf:resource="http://purl.org/dc/dcmitype/StillImage" />
        <dc:title></dc:title>
      </cc:Work>
    </rdf:RDF>
  </metadata>
  <g
     id="layer1">
    <g
       id="text2985"
       style="font-size:40px;font-style:normal;font-variant:normal;font-weight:normal;font-stretch:normal;line-height:125%;letter-spacing:0px;word-spacing:0px;fill:#000000;fill-opacity:1;stroke:none;font-family:'Lobster 1.3';-inkscape-font-specification:'Lobster 1.3'">
      <path
         d="m 149.19988,335.49395 c -1.81331,8.47989 -3.62662,16.95978 -5.43993,25.43967 1.91998,0 3.83995,0 5.75993,0 1.09332,-5.1066 2.18664,-10.2132 3.27996,-15.3198 2.91538,-0.96766 5.89379,1.19097 5.63132,4.30577 0.003,2.76006 -0.62664,6.09729 -3.14184,7.6508 -1.77067,1.44263 -3.81809,-2.74296 -3.88447,0.14328 -1.12217,3.23966 2.69609,4.36577 5.14449,3.85653 3.9835,-0.73125 6.14891,-4.82742 7.05435,-8.42884 0.81749,-3.2469 0.4331,-7.71817 -3.10834,-9.14126 -2.48439,-0.42198 2.01085,-1.93106 2.06591,-3.59933 1.7042,-2.78401 0.57505,-6.64608 -2.30115,-8.13808 -6.3856,-3.1036 -14.74633,-0.48983 -18.77972,5.21028 -1.3275,2.0211 -2.05073,5.41901 0.154,7.08845 1.23432,0.71685 3.74674,1.27259 2.40743,-0.83256 -0.63603,-4.19186 1.67479,-8.75421 5.81533,-10.12008 2.7422,-0.84913 6.86043,-1.82208 8.72979,1.06176 1.85774,3.65358 -1.14876,9.02811 -5.38711,8.90331 0.63999,-2.95996 1.27999,-5.91993 1.91998,-8.87989 -1.97331,0.26666 -3.94662,0.53333 -5.91993,0.79999 z"
         id="path2990" />
      <path
         d="m 174.59051,335.49395 c -1.81331,8.47989 -3.62662,16.95978 -5.43993,25.43967 1.91997,0 3.83995,0 5.75992,0 0.81332,-3.79995 1.62665,-7.5999 2.43997,-11.39985 4.61152,0.10455 9.22731,-2.52818 10.96609,-6.90177 1.7377,-3.64913 0.64126,-8.65419 -3.14921,-10.52032 -6.31138,-2.86248 -14.35976,-0.18808 -18.29633,5.36129 -1.32751,2.02109 -2.05074,5.41902 0.154,7.08845 1.23431,0.71685 3.74675,1.27259 2.40742,-0.83256 -0.64149,-4.24908 1.59694,-9.04739 5.92555,-10.29111 2.82759,-0.86064 7.08737,-1.44718 8.66738,1.76591 1.61908,3.85603 -0.0739,8.50875 -2.96629,11.30211 -0.89874,0.86264 -4.21139,2.63758 -3.10323,0.20551 0.85153,-4.00577 1.70305,-8.01155 2.55458,-12.01732 -1.97331,0.26666 -3.94661,0.53333 -5.91992,0.79999 z"
         id="path2992" />
      <path
         d="m 210.04097,335.73395 c 0.22717,-2.85501 -2.5768,-4.66378 -5.14373,-4.71936 -4.36783,-0.5566 -9.80033,1.56848 -10.94615,6.19172 -0.68479,2.92303 1.27433,5.5685 3.39004,7.34834 2.24177,2.25259 4.87096,4.62765 5.02994,8.04447 0.55393,2.95707 -1.13643,7.03932 -4.69592,6.60284 -2.80032,-0.0294 -4.34951,-3.21166 -3.31854,-5.64073 0.29475,-2.27829 3.86497,-2.00933 4.24654,-3.08715 -1.86831,-2.87168 -6.76737,-1.46971 -8.22775,1.2185 -1.63786,3.01479 -0.50716,7.429 2.93726,8.59365 4.69116,1.60833 10.90866,1.19221 14.12349,-3.0274 2.8657,-4.09658 1.87235,-10.29901 -2.04263,-13.38812 -1.96046,-2.08572 -4.97178,-3.67229 -5.23951,-6.84355 -0.64779,-2.40199 1.65141,-4.62707 4.02652,-4.1925 3.29724,0.055 3.13918,4.80949 0.74051,6.09925 1.97652,2.1722 5.31179,-0.21735 5.10344,-2.7725 l 0.0165,-0.42746 0,0 z"
         id="path2994" />
    </g>
  </g>
</svg>
