<?xml version="1.0" encoding="UTF-8" standalone="no"?>
<!-- Created with Inkscape (http://www.inkscape.org/) -->

<svg
   xmlns:dc="http://purl.org/dc/elements/1.1/"
   xmlns:cc="http://creativecommons.org/ns#"
   xmlns:rdf="http://www.w3.org/1999/02/22-rdf-syntax-ns#"
   xmlns:svg="http://www.w3.org/2000/svg"
   xmlns="http://www.w3.org/2000/svg"
   version="1.2"
   width="744.09448"
   height="1052.3622"
   id="svg2">
  <defs
     id="defs4" />
  <metadata
     id="metadata7">
    <rdf:RDF>
      <cc:Work
         rdf:about="">
        <dc:format>image/svg+xml</dc:format>
        <dc:type
           rdf:resource="http://purl.org/dc/dcmitype/StillImage" />
        <dc:title></dc:title>
      </cc:Work>
    </rdf:RDF>
  </metadata>
  <g
     id="layer1">
    <g
       id="text2993"
       style="font-size:82.48009491px;font-style:normal;font-weight:normal;line-height:125%;letter-spacing:0px;word-spacing:0px;fill:#000000;fill-opacity:1;stroke:none;font-family:Sans">
      <path
         d="m 109.51584,264.2846 c -7.86148,14.15151 -31.641421,7.98753 -26.272707,-9.41276 1.121002,-11.80109 2.93902,-26.75826 14.158677,-33.25578 12.46185,-3.61028 4.76882,11.9631 6.9694,13.90398 18.09265,-0.89212 1.6987,-25.86298 -11.457917,-17.72895 -18.088475,3.59921 -22.773742,25.04061 -22.657475,40.80246 -2.054315,13.69036 11.329655,24.75312 24.327428,20.45737 6.230404,-0.48182 19.460214,-9.39508 14.932594,-14.76632 z"
         id="path3000"
         style="font-family:'Lobster 1.3';-inkscape-font-specification:'Lobster 1.3'" />
      <path
         d="m 145.32,250.18069 c 2.59457,-12.65442 -14.78749,-14.60031 -19.87753,-8.69059 1.42966,-6.6982 2.85931,-13.39639 4.28897,-20.09459 -3.92181,1.65898 -11.75322,-0.89968 -12.70116,3.96748 -3.82173,17.92261 -7.64347,35.84523 -11.4652,53.76784 3.75801,-1.22415 11.6497,2.65795 12.37043,-2.31807 2.19992,-10.33449 4.39983,-20.66897 6.59975,-31.00346 11.27137,-6.62375 8.77997,8.35837 6.70211,14.55426 -3.32181,8.12563 -1.69194,21.41822 10.23471,18.51773 4.9508,-1.52816 20.38094,-13.4405 15.06504,-14.51421 -5.99914,9.39533 -19.55415,8.5641 -13.43814,-3.83976 0.74034,-3.44887 1.48068,-6.89775 2.22102,-10.34663 z"
         id="path3002"
         style="font-family:'Lobster 1.3';-inkscape-font-specification:'Lobster 1.3'" />
      <path
         d="m 157.82643,237.89131 c -2.91426,13.74651 -5.82852,27.49301 -8.74278,41.23952 3.75667,-1.22443 11.65259,2.65856 12.36791,-2.31861 2.11828,-10.00439 4.23655,-20.00878 6.35483,-30.01317 6.33053,-8.45609 10.3534,10.76763 16.26252,-1.40599 4.00689,-14.74308 -17.6009,-0.48773 -14.5938,-6.46401 -0.57658,-2.44993 -8.6986,-0.32098 -11.64868,-1.03774 z"
         id="path3004"
         style="font-family:'Lobster 1.3';-inkscape-font-specification:'Lobster 1.3'" />
      <path
         d="m 189.38152,237.89131 c -1.94993,11.47902 -5.91107,22.77865 -6.24169,34.40826 6.56992,15.41852 23.48882,0.43593 29.66573,-7.93249 -5.49533,1.27712 -19.96251,14.32932 -17.15822,0.0214 1.87039,-8.83238 3.74077,-17.66476 5.61116,-26.49714 -3.95899,0 -7.91799,0 -11.87698,0 z m 1.5671,-10.88723 c 2.70358,16.60939 23.22169,-3.93475 6.51584,-6.59832 -3.52786,-0.0916 -6.609,3.09687 -6.51584,6.59832 z"
         id="path3006"
         style="font-family:'Lobster 1.3';-inkscape-font-specification:'Lobster 1.3'" />
      <path
         d="m 218.12832,238.7161 c 1.68599,15.05149 -22.98654,26.62112 -7.06517,39.11182 13.11045,6.34756 26.43012,-6.5599 31.09654,-15.12832 -3.27478,-3.38294 -8.14383,9.47546 -6.8788,-2.35412 -4.58988,-6.18264 -2.09999,-22.0311 -7.51395,-23.62357 -3.21287,0.66473 -6.42575,1.32946 -9.63862,1.99419 z m 0.0825,24.0014 c -4.30446,-3.44229 0.54164,-15.8183 1.67503,-16.23201 2.21763,8.91426 9.00623,32.11074 -8.22181,26.09856 -7.16412,-10.58604 6.70041,0.31323 6.54678,-9.86655 z"
         id="path3008"
         style="font-family:'Lobster 1.3';-inkscape-font-specification:'Lobster 1.3'" />
      <path
         d="m 309.18971,228.15879 c 7.19843,0.1755 11.59792,-15.3555 1.11987,-9.4683 -15.59105,0.67681 -34.77861,-6.17324 -47.20753,6.88142 -8.48413,5.28481 -4.63444,25.62994 3.33259,19.72189 -6.22705,-9.98766 10.45646,-26.92744 15.4516,-18.36446 -3.73808,17.40049 -7.47616,34.80099 -11.21424,52.20149 3.75966,-1.2238 11.6461,2.65718 12.37357,-2.3174 3.6285,-16.93304 7.25701,-33.86607 10.88552,-50.7991 5.05793,0.87059 10.10235,2.07639 15.25862,2.14446 z"
         id="path3010"
         style="font-family:'Lobster 1.3';-inkscape-font-specification:'Lobster 1.3'" />
      <path
         d="m 309.1464,238.7161 c 1.686,15.05149 -22.98654,26.62111 -7.06517,39.11182 13.11045,6.34756 26.43012,-6.55991 31.09654,-15.12832 -3.27477,-3.38293 -8.14384,9.47546 -6.8788,-2.35412 -4.58988,-6.18264 -2.09999,-22.0311 -7.51395,-23.62357 -3.21287,0.66473 -6.42575,1.32946 -9.63862,1.99419 z m 0.0825,24.0014 c -4.30446,-3.44229 0.54164,-15.8183 1.67503,-16.23201 2.21765,8.91426 9.00624,32.11074 -8.22181,26.09856 -7.47284,-9.57728 7.34526,-0.50976 6.54678,-9.86655 z"
         id="path3012"
         style="font-family:'Lobster 1.3';-inkscape-font-specification:'Lobster 1.3'" />
      <path
         d="m 357.00527,237.89131 c -6.05795,-0.21847 -22.15658,1.20621 -24.52453,13.46358 -3.90425,9.45497 -7.08117,29.89921 8.94598,28.09911 7.33903,-1.59039 8.94436,-10.20826 14.20281,-1.1776 8.4564,5.20992 26.04587,-12.05346 21.9955,-13.90932 -5.29313,8.74392 -19.54847,9.12919 -13.69928,-3.07009 1.65217,-7.80189 3.30433,-15.60379 4.9565,-23.40568 -3.95899,0 -7.91799,0 -11.87698,0 z m -5.36113,4.70131 c 7.57706,0.71939 1.06027,9.70243 1.26474,14.6245 -1.427,5.85933 -1.89682,18.58569 -10.78076,14.4906 -3.55428,-8.35346 -0.35195,-25.94959 9.51602,-29.1151 z"
         id="path3014"
         style="font-family:'Lobster 1.3';-inkscape-font-specification:'Lobster 1.3'" />
      <path
         d="m 409.20733,250.18069 c 2.60548,-12.70759 -14.92345,-14.62237 -19.95353,-8.6067 3.13651,-6.48211 -6.55722,-2.67216 -10.24168,-3.68268 -2.56233,2.69884 -2.13783,9.0841 -3.6022,13.13807 -1.98584,9.36715 -3.97167,18.7343 -5.95751,28.10145 3.7551,-1.22476 11.65599,2.65928 12.36494,-2.31923 2.17425,-10.3341 4.34851,-20.6682 6.52276,-31.0023 11.3359,-6.65501 8.88379,8.3163 6.78459,14.55426 -3.29161,8.11256 -1.74679,21.31792 10.16407,18.56549 6.80549,-0.25949 20.99055,-20.00372 8.1662,-8.91216 -10.8477,6.31046 -7.2933,-7.57757 -5.63963,-13.35161 0.464,-2.16153 0.92799,-4.32306 1.39199,-6.48459 z"
         id="path3016"
         style="font-family:'Lobster 1.3';-inkscape-font-specification:'Lobster 1.3'" />
      <path
         d="m 439.71736,237.89131 c 0.0657,8.45518 -10.29986,-5.55968 -15.98294,2.27455 -10.28915,7.20278 -13.51588,22.19287 -10.6449,33.82002 1.89126,11.33756 18.66607,0.95104 18.03077,4.15936 -8.70471,1.72622 -21.75234,17.76604 -6.37836,21.48194 11.96434,2.09761 16.93327,-10.42306 18.02116,-20.08002 8.29572,1.59423 17.19973,-17.50204 12.66103,-15.53898 -4.76715,8.54818 -15.12642,14.00878 -9.61505,1.14777 1.92842,-9.08822 3.85685,-18.17643 5.78527,-27.26464 -3.95899,0 -7.91799,0 -11.87698,0 z m -6.51584,4.70131 c 8.2232,1.85783 2.2872,10.4715 2.06808,15.90934 -0.94216,6.17918 -2.37776,17.02044 -11.55317,12.25725 -3.6156,-7.89385 -0.20613,-25.66209 9.48509,-28.16659 z m -11.29963,48.00279 c 4.70218,-12.37261 13.01705,-3.62336 2.80429,2.72181 -1.46436,0.0469 -2.78075,-1.22585 -2.80429,-2.72181 z"
         id="path3018"
         style="font-family:'Lobster 1.3';-inkscape-font-specification:'Lobster 1.3'" />
    </g>
  </g>
</svg>
