<?xml version="1.0" encoding="UTF-8" standalone="no"?>
<!-- Created with Inkscape (http://www.inkscape.org/) -->

<svg
   xmlns:dc="http://purl.org/dc/elements/1.1/"
   xmlns:cc="http://creativecommons.org/ns#"
   xmlns:rdf="http://www.w3.org/1999/02/22-rdf-syntax-ns#"
   xmlns:svg="http://www.w3.org/2000/svg"
   xmlns="http://www.w3.org/2000/svg"
   version="1.1"
   width="744.09448"
   height="1052.3622"
   id="svg2">
  <defs
     id="defs4" />
  <metadata
     id="metadata7">
    <rdf:RDF>
      <cc:Work
         rdf:about="">
        <dc:format>image/svg+xml</dc:format>
        <dc:type
           rdf:resource="http://purl.org/dc/dcmitype/StillImage" />
        <dc:title></dc:title>
      </cc:Work>
    </rdf:RDF>
  </metadata>
  <g
     id="layer1">
    <g
       id="text3037"
       style="font-size:40px;font-style:normal;font-variant:normal;font-weight:normal;font-stretch:normal;line-height:125%;letter-spacing:0px;word-spacing:0px;fill:#000000;fill-opacity:1;stroke:none;font-family:'Lobster 1.3';-inkscape-font-specification:'Lobster 1.3'">
      <path
         d="m 126.69988,371.56536 c -1.81331,8.47989 -3.62662,16.95979 -5.43993,25.43968 3.19817,0.80533 6.14679,-1.11068 7.35427,-0.64437 7.74186,4.28902 13.06408,-5.98892 14.05812,-12.31113 1.83912,-6.40595 0.55882,-16.25618 -7.7721,-16.78395 -7.29685,-2.71076 -22.57834,6.73314 -14.7134,13.81841 2.97618,-0.18993 0.17379,-10.4076 6.70467,-11.21321 8.48861,-4.78067 13.05179,4.56056 10.51886,11.75219 0.44102,4.79407 -5.90387,16.65202 -9.31952,10.31525 1.50966,-7.05762 3.01931,-14.11524 4.52896,-21.17286 -1.97331,0.26666 -3.94662,0.53333 -5.91993,0.79999 z"
         id="path3042" />
      <path
         d="m 146.54434,377.00529 c -0.93871,5.56745 -2.87704,11.04607 -3.02701,16.68682 2.53669,8.11104 13.72529,-1.18554 13.5232,-3.84698 -3.08764,3.81635 -10.03354,4.7233 -7.07945,-1.77481 0.78106,-3.68834 1.56213,-7.37669 2.34319,-11.06503 -1.91998,0 -3.83995,0 -5.75993,0 z m 0.75999,-5.27993 c 3.60983,9.91051 10.50143,-6.75572 0.91999,-2.25997 l -0.67374,1.0175 -0.24625,1.24247 z"
         id="path3044" />
      <path
         d="m 166.44547,380.96524 c 7.08968,-0.71152 -3.6924,-7.17698 -6.80464,-2.79912 -7.1795,3.941 -8.36805,22.02839 3.23635,18.45855 4.15191,0.37024 11.12082,-11.02125 4.38562,-4.68332 -9.13586,6.62121 -9.4712,-9.18589 -3.67285,-12.95311 1.51765,-1.19732 3.95831,-0.12971 2.85552,1.977 z"
         id="path3046" />
      <path
         d="m 183.94043,377.00529 c -3.24781,1.9946 -9.67309,9.39893 -6.81508,1.77744 0.69839,-3.25911 1.39677,-6.51822 2.09515,-9.77733 -2.27067,0.8117 -6.58249,-0.57858 -6.37022,2.91169 -1.78321,8.36265 -3.56642,16.7253 -5.34963,25.08795 2.22655,-0.50987 6.49871,1.50475 6.2075,-2.11228 0.6108,-2.88253 1.22159,-5.76506 1.83239,-8.64759 8.6945,-3.75789 -0.26179,9.51406 6.47929,10.50174 3.9229,2.00903 11.43033,-6.1185 9.52051,-6.90178 -3.65232,5.96936 -8.3257,2.82734 -5.71993,-2.51997 0.14186,-5.54589 -9.31494,-4.02249 -2.10047,-7.25564 1.66277,-1.33124 6.86475,-3.74502 1.94943,-3.06423 -0.57631,0 -1.15263,0 -1.72894,0 z"
         id="path3048" />
      <path
         d="m 217.34349,389.80513 c -4.27286,7.35308 -15.87154,3.25142 -12.69223,-5.49853 0.42345,-5.50645 2.92407,-17.99425 10.35226,-14.24122 1.47446,2.91796 -3.5791,7.00315 2.23808,5.70308 6.20617,-8.49171 -9.40791,-11.80888 -13.68163,-5.5053 -5.20584,6.0642 -6.50524,15.31999 -4.06563,22.79658 4.06648,7.12878 16.48061,4.72064 18.76914,-2.85462 -0.30666,-0.13333 -0.61333,-0.26666 -0.91999,-0.39999 z"
         id="path3050" />
      <path
         d="m 234.70727,382.96522 c 1.55782,-6.93046 -8.27615,-5.79965 -9.53959,-4.6846 0.6599,-3.09174 1.31979,-6.18348 1.97969,-9.27522 -2.27067,0.8117 -6.58248,-0.57858 -6.37021,2.91169 -1.78321,8.36265 -3.56643,16.7253 -5.34964,25.08795 2.22702,-0.50977 6.49731,1.50446 6.20948,-2.11186 0.9968,-4.68264 1.9936,-9.36529 2.9904,-14.04794 5.78419,-3.22134 4.06118,4.55435 3.12956,7.63024 -3.15727,5.81227 3.68462,11.96998 8.61139,6.38005 2.65615,-1.51944 7.337,-7.97435 1.83262,-3.35292 -5.60336,5.32039 -5.7677,-1.82294 -4.13671,-5.54188 0.21434,-0.9985 0.42867,-1.99701 0.64301,-2.99551 z"
         id="path3052" />
      <path
         d="m 248.05237,376.6053 c -8.89565,-0.0808 -12.30658,11.16553 -9.70847,18.25398 7.06262,7.5603 14.51568,-3.93976 15.28948,-9.88767 3.40508,-0.55583 7.11497,-6.31075 1.66013,-2.34825 -4.41659,1.65484 -1.37522,-7.21065 -7.24114,-6.01806 z m -2.51997,16.75978 c -6.62626,-0.99747 0.13241,-19.29459 4.35994,-12.31984 -5.42194,3.67715 5.16188,6.12485 -4.35994,12.31984 z"
         id="path3054" />
    </g>
  </g>
</svg>
