<?xml version="1.0" encoding="UTF-8" standalone="no"?>
<!-- Created with Inkscape (http://www.inkscape.org/) -->

<svg
   xmlns:dc="http://purl.org/dc/elements/1.1/"
   xmlns:cc="http://creativecommons.org/ns#"
   xmlns:rdf="http://www.w3.org/1999/02/22-rdf-syntax-ns#"
   xmlns:svg="http://www.w3.org/2000/svg"
   xmlns="http://www.w3.org/2000/svg"
   version="1.1"
   width="744.09448"
   height="1052.3622"
   id="svg2">
  <defs
     id="defs4" />
  <metadata
     id="metadata7">
    <rdf:RDF>
      <cc:Work
         rdf:about="">
        <dc:format>image/svg+xml</dc:format>
        <dc:type
           rdf:resource="http://purl.org/dc/dcmitype/StillImage" />
        <dc:title></dc:title>
      </cc:Work>
    </rdf:RDF>
  </metadata>
  <g
     id="layer1">
    <g
       id="text3250"
       style="font-size:40px;font-style:normal;font-variant:normal;font-weight:normal;font-stretch:normal;line-height:125%;letter-spacing:0px;word-spacing:0px;fill:#000000;fill-opacity:1;stroke:none;font-family:Consolas;-inkscape-font-specification:Consolas">
      <path
         d="m 97.1875,332.59378 c -0.03372,4.28422 -7.199443,1.19241 -10.46341,2.12891 -9.897321,0.78689 5.979019,9.57872 9.408727,6.00148 -4.512994,9.512 -23.251836,-2.34781 -15.019533,-12.70561 4.077523,-8.03752 17.117269,-4.76608 16.074216,4.57522 z m -3.535156,-0.48828 c 1.9603,-12.27133 -17.088708,-0.76223 -7.258003,0 2.419334,0 4.838669,0 7.258003,0 z"
         id="path3255" />
      <path
         d="m 109.33594,318.62894 c -3.68669,1.78979 -9.18987,-2.51854 -3.35718,-2.79297 3.74737,-0.057 8.57255,-1.1919 6.79468,4.2763 0,6.82977 0,13.65955 0,20.48932 3.71011,-1.79115 9.24374,2.52805 3.39624,2.83203 -4.42635,0 -8.8527,0 -13.27905,0 -2.16805,-5.87139 7.33549,-0.0712 6.44531,-4.66473 0,-6.71332 0,-13.42663 0,-20.13995 z"
         id="path3257" />
      <path
         d="m 141.25,332.59378 c -0.0337,4.28422 -7.19944,1.19241 -10.46339,2.12891 -9.89732,0.78689 5.97902,9.57872 9.40873,6.00148 -4.51299,9.512 -23.25183,-2.34782 -15.01953,-12.70561 4.07751,-8.03752 17.11731,-4.76606 16.07419,4.57522 z m -3.53516,-0.48828 c 1.96031,-12.27133 -17.08871,-0.76223 -7.258,0 2.41933,0 4.83867,0 7.258,0 z"
         id="path3259" />
      <path
         d="m 164.35547,343.43362 c -4.3713,1.26305 -6.68428,-1.99252 -9.07836,-5.07006 -2.489,-2.8258 -5.88475,-8.07557 -4.73024,-1.16145 1.20494,3.32659 -0.97723,9.26646 -3.39843,5.00971 0,-8.79195 0,-17.5839 0,-26.37585 5.42312,-1.64308 2.81327,4.74681 3.39843,7.94169 0.63782,2.25916 -1.5638,11.45948 1.71263,7.26842 2.87616,-2.16032 4.83804,-6.50074 8.31777,-7.22183 6.50623,-1.13303 -0.82584,3.39663 -2.39313,5.56732 -4.72623,2.5327 -2.77212,5.23554 0.59719,7.97443 1.85805,2.02254 3.71609,4.04508 5.57414,6.06762 z"
         id="path3261" />
      <path
         d="m 184.55078,343.16019 c -8.14884,3.46517 -14.10334,-3.44989 -12.20703,-11.1372 1.75442,-5.56987 -2.28,-5.3509 -5.48828,-5.95808 -1.04698,-4.84509 8.0991,0.50288 5.48828,-5.90606 1.46085,-5.36621 4.98892,-0.57678 3.39844,3.50486 2.32229,1.27833 9.15192,-1.9507 8.80859,1.99324 -0.62306,3.06002 -8.51956,-1.1534 -8.80859,2.24066 0.63447,4.48152 -2.26942,12.50126 4.43359,12.93836 3.38324,-0.0299 5.05197,-1.96435 4.375,2.32422 z"
         id="path3263" />
      <path
         d="m 191.58203,323.82425 c 5.53095,-1.64295 1.25316,7.2108 6.6309,0.58594 5.51605,-5.78409 14.46989,8.15803 6.04492,6.89453 -0.57896,-10.41812 -12.34569,-0.95321 -9.23828,5.64024 1.13844,3.36331 -0.9078,9.56419 -3.4375,5.26686 -10e-6,-6.12919 -3e-5,-12.25838 -4e-5,-18.38757 z"
         id="path3265" />
      <path
         d="m 229.88281,333.47269 c 0.68628,17.64333 -26.77396,9.07531 -16.96777,-5.6494 4.79168,-8.14755 18.27817,-4.21095 16.96777,5.6494 z m -3.47656,0.15625 c 0.13311,-13.78953 -17.9829,-3.86113 -9.90234,5.45898 4.34392,4.66715 10.60837,0.0103 9.90234,-5.45898 z"
         id="path3267" />
      <path
         d="m 250.37109,338.08206 c 1.12669,10.88301 -23.76777,2.92803 -11.67968,2.57813 9.79344,2.88584 9.51214,-6.5657 0.53711,-6.66993 -14.92418,-8.85414 15.22265,-14.03641 8.29344,-7.26316 -8.24634,-3.36111 -11.43933,5.68966 -1.79932,6.07421 2.34614,0.74176 4.90996,2.45745 4.64845,5.28075 z"
         id="path3269" />
      <path
         d="m 272.67578,343.16019 c -8.14884,3.46517 -14.10334,-3.44989 -12.20703,-11.1372 1.75442,-5.56987 -2.28,-5.3509 -5.48828,-5.95808 -1.04698,-4.84509 8.0991,0.50288 5.48828,-5.90606 1.46085,-5.36621 4.98892,-0.57678 3.39844,3.50486 2.32229,1.27833 9.15192,-1.9507 8.80859,1.99324 -0.62306,3.06002 -8.51956,-1.1534 -8.80859,2.24066 0.63447,4.48152 -2.26942,12.50126 4.43359,12.93836 3.38324,-0.0299 5.05197,-1.96435 4.375,2.32422 z"
         id="path3271" />
      <path
         d="m 291.50391,343.43362 c 0.96124,-6.11351 -10.74579,6.13178 -12.76365,-3.02734 -3.77926,-10.10764 10.87284,-6.21784 12.39258,-10.21484 0.12803,-7.11095 -18.49265,-0.59598 -8.00781,-6.32813 8.29945,-3.21269 13.05299,4.38824 11.42578,11.55278 -0.85007,2.87493 2.33464,9.80062 -3.0469,8.01753 z m -0.3711,-8.92578 c -5.71355,-2.4461 -14.11912,5.98426 -4.62159,6.2671 3.32022,-0.85767 5.39345,-2.84218 4.62159,-6.2671 z"
         id="path3273" />
      <path
         d="m 301.73828,323.82425 c 5.53095,-1.64295 1.25316,7.2108 6.6309,0.58594 5.51605,-5.78409 14.46989,8.15803 6.04492,6.89453 -0.57898,-10.41812 -12.34568,-0.9532 -9.23828,5.64024 1.13844,3.36331 -0.9078,9.56419 -3.4375,5.26686 -10e-6,-6.12919 -3e-5,-12.25838 -4e-5,-18.38757 z"
         id="path3275" />
      <path
         d="m 338.76953,343.16019 c -8.14884,3.46517 -14.10334,-3.44989 -12.20703,-11.1372 1.75442,-5.56987 -2.28,-5.3509 -5.48828,-5.95808 -1.04698,-4.84509 8.0991,0.50288 5.48828,-5.90606 1.46085,-5.36621 4.98892,-0.57678 3.39844,3.50486 2.32229,1.27833 9.15192,-1.9507 8.80859,1.99324 -0.62306,3.06002 -8.51956,-1.1534 -8.80859,2.24066 0.63447,4.48152 -2.26942,12.50126 4.43359,12.93836 3.38324,-0.0299 5.05197,-1.96435 4.375,2.32422 z"
         id="path3277" />
      <path
         d="m 361.5625,332.59378 c -0.0337,4.28422 -7.19944,1.19241 -10.46339,2.12891 -9.89732,0.78689 5.97902,9.57872 9.40873,6.00148 -4.51299,9.512 -23.25183,-2.34782 -15.01953,-12.70561 4.07751,-8.03752 17.11731,-4.76606 16.07419,4.57522 z m -3.53516,-0.48828 c 1.96031,-12.27133 -17.08871,-0.76223 -7.258,0 2.41933,0 4.83867,0 7.258,0 z"
         id="path3279" />
      <path
         d="m 367.83203,323.82425 c 5.53095,-1.64295 1.25316,7.2108 6.6309,0.58594 5.51605,-5.78409 14.46989,8.15803 6.04492,6.89453 -0.57898,-10.41812 -12.34568,-0.9532 -9.23828,5.64024 1.13844,3.36331 -0.9078,9.56419 -3.4375,5.26686 -10e-6,-6.12919 -3e-5,-12.25838 -4e-5,-18.38757 z"
         id="path3281" />
    </g>
  </g>
</svg>
