<?xml version="1.0" encoding="UTF-8" standalone="no"?>
<!-- Created with Inkscape (http://www.inkscape.org/) -->

<svg
   xmlns:dc="http://purl.org/dc/elements/1.1/"
   xmlns:cc="http://creativecommons.org/ns#"
   xmlns:rdf="http://www.w3.org/1999/02/22-rdf-syntax-ns#"
   xmlns:svg="http://www.w3.org/2000/svg"
   xmlns="http://www.w3.org/2000/svg"
   version="1.1"
   width="744.09448"
   height="1052.3622"
   id="svg2">
  <defs
     id="defs4" />
  <metadata
     id="metadata7">
    <rdf:RDF>
      <cc:Work
         rdf:about="">
        <dc:format>image/svg+xml</dc:format>
        <dc:type
           rdf:resource="http://purl.org/dc/dcmitype/StillImage" />
        <dc:title></dc:title>
      </cc:Work>
    </rdf:RDF>
  </metadata>
  <g
     id="layer1">
    <g
       id="text3095"
       style="font-size:40px;font-style:normal;font-variant:normal;font-weight:normal;font-stretch:normal;line-height:125%;letter-spacing:0px;word-spacing:0px;fill:#000000;fill-opacity:1;stroke:none;font-family:'Lobster 1.3';-inkscape-font-specification:'Lobster 1.3'">
      <path
         d="m 136.88794,340.65744 c -1.12999,2.8511 -0.43165,6.92233 -3.17996,8.71989 -10.46612,1.36207 -6.7764,-15.09824 -0.93583,-18.86655 5.17513,-4.36784 6.8629,3.14744 4.89764,5.40049 9.13417,2.18827 3.44806,-11.89827 -3.63991,-8.48183 -10.99744,0.38366 -17.23238,15.7768 -10.06194,23.82631 3.32273,4.77373 12.97427,-3.18975 9.62707,4.13853 0.76349,4.935 -6.51411,12.67752 -7.08807,4.44354 1.29421,-4.10187 7.82673,1.23133 4.46045,-4.48713 -8.06108,-4.80674 -11.4895,10.78247 -2.43934,10.30643 6.62028,0.65882 10.04127,-6.02312 10.61025,-11.65823 0.96985,-4.44715 1.93971,-8.8943 2.90957,-13.34145 -1.71998,0 -3.43995,0 -5.15993,0 z"
         id="path3100" />
      <path
         d="m 156.01299,337.37749 c -5.03139,-1.12209 -13.63487,3.87532 -13.17909,11.65096 -2.95375,6.79532 6.21658,12.33872 10.17913,5.30882 2.69328,8.16052 14.91044,-2.43666 12.99983,-4.11995 -3.67634,5.41874 -9.46504,3.27655 -6.39967,-2.64114 0.71991,-3.39956 1.43982,-6.79913 2.15973,-10.19869 -1.91998,0 -3.83995,0 -5.75993,0 z m -2.59997,2.27997 c 3.77015,0.55156 0.29585,5.32783 0.43254,7.94804 0.7648,4.71181 -6.08958,10.40846 -5.78039,2.46423 0.53135,-3.63848 1.12569,-9.26044 5.34785,-10.41227 z"
         id="path3102" />
      <path
         d="m 167.44935,330.17758 c -1.51606,7.59315 -3.44674,15.12377 -4.67994,22.7597 2.47927,9.57177 16.67365,2.57623 16.54992,-5.56783 4.32942,-7.01423 -4.32369,-11.60408 -7.69022,-9.76232 0.58005,-2.74318 1.16011,-5.48636 1.74017,-8.22954 -1.97331,0.26666 -3.94662,0.53333 -5.91993,0.79999 z m 8.0399,12.47984 c 0.8528,3.81873 -4.35905,16.55459 -6.95479,9.58488 0.7784,-4.00688 1.68338,-7.98854 2.51485,-11.98485 1.99048,-1.26752 4.80188,-0.3411 4.43994,2.39997 z"
         id="path3104" />
      <path
         d="m 183.63686,337.37749 c -1.41331,6.66658 -2.82663,13.33316 -4.23994,19.99974 2.22932,-0.512 6.51553,1.51402 6.21002,-2.12572 0.95662,-4.51803 1.91324,-9.03605 2.86986,-13.55408 2.93637,-3.74157 6.55238,5.48017 8.0799,-1.75998 -1.42521,-5.92884 -8.05259,1.38473 -8.02905,-2.55996 -1.63026,0 -3.26053,0 -4.89079,0 z"
         id="path3106" />
      <path
         d="m 198.93999,337.37749 c -0.94977,5.56633 -2.85962,11.04783 -3.02701,16.68681 2.53345,8.11512 13.73941,-1.19424 13.51773,-3.84698 -3.09722,3.83716 -10.03184,4.70622 -7.07057,-1.79086 0.77993,-3.68299 1.55985,-7.36598 2.33978,-11.04897 -1.91998,0 -3.83995,0 -5.75993,0 z m 0.76,-5.27994 c 3.60982,9.91051 10.50143,-6.75572 0.91998,-2.25997 l -0.67374,1.01751 -0.24624,1.24246 z"
         id="path3108" />
      <path
         d="m 211.84122,351.05731 c 2.52803,-2.49518 14.90452,-8.68033 6.22366,-13.78356 -9.6139,-2.31992 -15.11079,12.78159 -9.26237,19.01224 5.8496,3.36719 12.26248,-1.91509 14.83856,-7.06866 -3.61445,-0.009 -9.35057,11.19679 -11.79985,1.83998 z m 6.75991,-9.67988 c 0.6754,4.92906 -9.56873,8.96939 -4.98822,1.79874 0.28382,-2.25571 4.78269,-6.73592 4.98822,-1.79874 z"
         id="path3110" />
      <path
         d="m 225.81997,330.17758 c -1.51317,7.62021 -3.47623,15.17287 -4.67994,22.8397 1.08026,9.64274 13.95534,0.24721 13.57067,-2.79996 -3.11647,3.83328 -10.04219,4.72688 -7.02765,-1.79024 1.35228,-6.34983 2.70456,-12.69966 4.05684,-19.04949 -1.97331,0.26666 -3.94661,0.53333 -5.91992,0.79999 z"
         id="path3112" />
      <path
         d="m 237.22622,330.17758 c -1.51317,7.62021 -3.47623,15.17287 -4.67994,22.8397 1.08026,9.64274 13.95534,0.24721 13.57067,-2.79996 -3.11647,3.83328 -10.04219,4.72688 -7.02765,-1.79024 1.35228,-6.34983 2.70456,-12.69966 4.05684,-19.04949 -1.97331,0.26666 -3.94661,0.53333 -5.91992,0.79999 z"
         id="path3114" />
      <path
         d="m 248.87247,351.05731 c 2.52803,-2.49518 14.90452,-8.68033 6.22366,-13.78356 -9.6139,-2.31992 -15.11079,12.78159 -9.26237,19.01224 5.8496,3.36719 12.26248,-1.91509 14.83856,-7.06866 -3.61445,-0.009 -9.35057,11.19679 -11.79985,1.83998 z m 6.75991,-9.67988 c 0.6754,4.92906 -9.56873,8.96939 -4.98822,1.79874 0.28382,-2.25571 4.78269,-6.73592 4.98822,-1.79874 z"
         id="path3116" />
    </g>
  </g>
</svg>
