<?xml version="1.0" encoding="UTF-8" standalone="no"?>
<!-- Created with Inkscape (http://www.inkscape.org/) -->

<svg
   xmlns:dc="http://purl.org/dc/elements/1.1/"
   xmlns:cc="http://creativecommons.org/ns#"
   xmlns:rdf="http://www.w3.org/1999/02/22-rdf-syntax-ns#"
   xmlns:svg="http://www.w3.org/2000/svg"
   xmlns="http://www.w3.org/2000/svg"
   version="1.1"
   width="744.09448"
   height="1052.3622"
   id="svg2">
  <defs
     id="defs4" />
  <metadata
     id="metadata7">
    <rdf:RDF>
      <cc:Work
         rdf:about="">
        <dc:format>image/svg+xml</dc:format>
        <dc:type
           rdf:resource="http://purl.org/dc/dcmitype/StillImage" />
        <dc:title></dc:title>
      </cc:Work>
    </rdf:RDF>
  </metadata>
  <g
     id="layer1">
    <g
       id="text3369"
       style="font-size:40px;font-style:normal;font-variant:normal;font-weight:normal;font-stretch:normal;line-height:125%;letter-spacing:0px;word-spacing:0px;fill:#000000;fill-opacity:1;stroke:none;font-family:'Lobster 1.3';-inkscape-font-specification:'Lobster 1.3'">
      <path
         d="m 114.15951,399.75138 c -1.12505,2.85421 -0.43971,6.91724 -3.17996,8.71988 -10.46611,1.36208 -6.7764,-15.09824 -0.93583,-18.86654 5.17514,-4.36786 6.86292,3.14746 4.89764,5.40048 9.13417,2.18827 3.44806,-11.89827 -3.63991,-8.48182 -10.99745,0.38365 -17.23237,15.7768 -10.06194,23.8263 3.30643,4.77783 12.96407,-3.18649 9.63225,4.11535 0.76548,4.93831 -6.50841,12.71136 -7.09325,4.46673 1.29418,-4.10189 7.82674,1.23133 4.46045,-4.48713 -8.06107,-4.80674 -11.489505,10.78246 -2.43935,10.30642 6.42026,0.66726 9.96834,-5.69716 10.51597,-11.2259 1.00129,-4.59126 2.00257,-9.18251 3.00386,-13.77377 -1.71998,0 -3.43995,0 -5.15993,0 z"
         id="path3374" />
      <path
         d="m 130.84459,396.07142 c -8.89566,-0.0808 -12.30658,11.16554 -9.70847,18.25399 7.06263,7.5603 14.51569,-3.93977 15.28948,-9.88768 3.40508,-0.55581 7.11496,-6.31077 1.66013,-2.34825 -4.41659,1.65484 -1.37522,-7.21065 -7.24114,-6.01806 z m -2.51997,16.75979 c -6.62627,-0.99747 0.13241,-19.2946 4.35995,-12.31984 -5.42196,3.67712 5.16187,6.12486 -4.35995,12.31984 z"
         id="path3376" />
      <path
         d="m 140.28343,396.47142 c -1.41331,6.66658 -2.82663,13.33316 -4.23994,19.99974 2.22657,-0.50996 6.49951,1.50511 6.20727,-2.1128 0.95754,-4.52234 1.91507,-9.04467 2.87261,-13.567 3.11195,-4.20297 4.99048,5.30564 7.88676,-0.68185 1.29483,-7.53179 -8.70165,0.51076 -7.3987,-3.63809 -1.776,0 -3.552,0 -5.328,0 z"
         id="path3378" />
      <path
         d="m 167.22641,389.27151 c -0.58666,2.74663 -1.17331,5.49326 -1.75997,8.23989 -7.51476,-3.96905 -13.42733,5.59185 -13.11169,12.3604 -1.98729,6.54601 7.4887,9.49836 10.35172,3.5594 2.66514,8.16411 14.88028,-2.45584 12.95983,-4.11995 -2.9127,4.60424 -9.50633,4.15615 -6.54459,-1.77569 1.34154,-6.35468 2.68309,-12.70936 4.02463,-19.06404 -1.97331,0.26666 -3.94662,0.53333 -5.91993,0.79999 z m -4.11994,9.47988 c 3.76579,0.54089 0.30675,5.29602 0.44181,7.90412 0.73429,4.66415 -6.05923,10.50965 -5.78966,2.50816 0.53133,-3.63849 1.12569,-9.26046 5.34785,-10.41228 z"
         id="path3380" />
      <path
         d="m 183.65709,396.07142 c -8.89566,-0.0808 -12.30658,11.16554 -9.70847,18.25399 7.06263,7.5603 14.51569,-3.93977 15.28948,-9.88768 3.40508,-0.55581 7.11496,-6.31077 1.66013,-2.34825 -4.41659,1.65484 -1.37522,-7.21065 -7.24114,-6.01806 z m -2.51997,16.75979 c -6.62627,-0.99747 0.13241,-19.2946 4.35995,-12.31984 -5.42196,3.67712 5.16187,6.12486 -4.35995,12.31984 z"
         id="path3382" />
      <path
         d="m 207.97574,402.43134 c 1.56258,-6.9566 -8.34486,-5.80544 -9.57247,-4.64324 1.13614,-2.46358 -4.64426,-1.26591 -5.55691,-0.89414 -1.38346,6.52573 -2.76691,13.05147 -4.15037,19.5772 2.22592,-0.5101 6.50144,1.50552 6.20458,-2.11338 0.9851,-4.68213 1.9702,-9.36427 2.9553,-14.04641 5.81829,-3.23864 4.1112,4.53531 3.16933,7.63134 -2.97406,5.3879 3.06109,11.86224 8.04978,6.75857 2.76353,-1.71582 5.67642,-7.11623 0.96073,-2.65006 -5.55951,3.07993 -3.3218,-4.17859 -2.61212,-7.04769 0.18405,-0.85739 0.3681,-1.71479 0.55215,-2.57219 z"
         id="path3384" />
      <path
         d="m 234.84389,386.95154 c -7.22581,-2.27963 -21.85571,8.94787 -12.33781,14.15639 0.62967,-1.82446 1.00449,-11.51716 5.9271,-10.97414 -1.95638,9.09912 -3.91275,18.19824 -5.86913,27.29736 7.72573,-0.69396 11.5831,8.16704 18.75976,9.03988 4.52918,-1.0552 5.91572,-8.65266 -0.45889,-5.73703 -3.75662,-2.15841 -13.94341,-2.66325 -11.45629,-8.44142 1.81175,-8.44701 3.62351,-16.89403 5.43526,-25.34104 z"
         id="path3386" />
      <path
         d="m 239.34716,410.15124 c 1.99155,-3.1034 13.30274,-6.25911 7.8299,-13.00983 -9.34816,-4.84718 -15.7444,9.05757 -12.37104,16.47979 4.15857,6.0228 12.64637,1.33375 15.41193,-3.75323 1.51716,-5.69049 -9.70932,10.90703 -10.87079,0.28327 l 0,0 z m 6.75991,-9.67987 c 0.67541,4.92907 -9.56872,8.96937 -4.98822,1.79873 0.24974,-2.27455 4.8098,-6.69121 4.98822,-1.79873 z"
         id="path3388" />
      <path
         d="m 262.1258,396.47142 c -1.02937,4.97536 -2.15315,9.93214 -3.11996,14.91981 -5.19791,4.39081 -5.29107,-2.1933 -3.78511,-5.54557 0.66171,-3.12475 1.32342,-6.24949 1.98513,-9.37424 -2.22658,0.50995 -6.49946,-1.50511 -6.20733,2.11279 -0.72439,5.15213 -3.05634,10.27695 -2.32444,15.47386 3.17137,7.02166 10.32741,-3.92357 11.98673,1.6031 4.31448,3.62192 13.1277,-5.21844 11.46485,-6.34992 -3.65951,5.40254 -9.4645,3.29441 -6.40403,-2.62048 0.72136,-3.40645 1.44273,-6.8129 2.1641,-10.21935 -1.91998,0 -3.83996,0 -5.75994,0 z"
         id="path3390" />
      <path
         d="m 287.50699,402.43134 c 1.56258,-6.9566 -8.34486,-5.80544 -9.57247,-4.64324 1.13614,-2.46358 -4.64426,-1.26591 -5.55691,-0.89414 -1.38346,6.52573 -2.76691,13.05147 -4.15037,19.5772 2.22592,-0.5101 6.50144,1.50552 6.20458,-2.11338 0.9851,-4.68213 1.9702,-9.36427 2.9553,-14.04641 5.81829,-3.23864 4.1112,4.53531 3.16933,7.63134 -2.97406,5.3879 3.06109,11.86224 8.04978,6.75857 2.76353,-1.71582 5.67642,-7.11623 0.96073,-2.65006 -5.55951,3.07993 -3.3218,-4.17859 -2.61212,-7.04769 0.18405,-0.85739 0.3681,-1.71479 0.55215,-2.57219 z"
         id="path3392" />
      <path
         d="m 302.30331,396.47142 c 0.006,4.02123 -5.75176,-3.16912 -8.42351,1.53526 -5.92219,3.94704 -8.54266,21.25347 2.44359,18.22948 6.89137,-1.8057 -8.5054,3.24913 -4.50306,8.05802 4.94639,5.9326 12.10655,-1.13263 11.86165,-7.15803 3.32459,0.0293 8.73356,-8.54266 6.23857,-7.99895 -2.7564,4.75233 -7.27149,6.37209 -4.54141,-0.0163 0.8947,-4.2165 1.7894,-8.43301 2.6841,-12.64951 -1.91998,0 -3.83995,0 -5.75993,0 z m -3.15996,2.27997 c 4.17447,1.28654 0.78333,5.88493 0.75029,8.90167 0.89724,6.30955 -8.7588,6.67187 -5.85062,-0.47539 0.6671,-2.9821 1.36623,-7.89519 5.10033,-8.42628 z m -5.47993,23.2797 c 0.91799,-3.82215 6.35664,-4.27818 2.63997,0.42499 -0.59646,1.30783 -2.57538,1.11038 -2.63997,-0.42499 z"
         id="path3394" />
    </g>
  </g>
</svg>
