<?xml version="1.0" encoding="UTF-8" standalone="no"?>
<!-- Created with Inkscape (http://www.inkscape.org/) -->

<svg
   xmlns:dc="http://purl.org/dc/elements/1.1/"
   xmlns:cc="http://creativecommons.org/ns#"
   xmlns:rdf="http://www.w3.org/1999/02/22-rdf-syntax-ns#"
   xmlns:svg="http://www.w3.org/2000/svg"
   xmlns="http://www.w3.org/2000/svg"
   version="1.1"
   width="744.09448"
   height="1052.3622"
   id="svg2">
  <defs
     id="defs4" />
  <metadata
     id="metadata7">
    <rdf:RDF>
      <cc:Work
         rdf:about="">
        <dc:format>image/svg+xml</dc:format>
        <dc:type
           rdf:resource="http://purl.org/dc/dcmitype/StillImage" />
        <dc:title></dc:title>
      </cc:Work>
    </rdf:RDF>
  </metadata>
  <g
     id="layer1">
    <g
       id="text2999"
       style="font-size:40px;font-style:normal;font-variant:normal;font-weight:normal;font-stretch:normal;line-height:125%;letter-spacing:0px;word-spacing:0px;fill:#000000;fill-opacity:1;stroke:none;font-family:'Lobster 1.3';-inkscape-font-specification:'Lobster 1.3'">
      <path
         d="m 138.90841,323.07673 c 0.0106,3.99459 -4.98205,-2.63689 -7.75117,1.10307 -4.84097,3.30731 -6.16773,9.99666 -5.49364,15.48735 0.26848,6.11993 9.04899,1.97872 9.09392,2.84861 -3.44225,1.29699 -10.57099,7.33391 -3.93838,10.31996 5.50892,1.70397 9.07663,-3.84155 9.37184,-8.64199 1.82007,-2.7772 8.00846,-3.83748 6.84295,-8.8381 0.23964,0.0441 -8.08494,9.28526 -5.4626,2.31662 1.03233,-4.86518 2.06467,-9.73035 3.09701,-14.59552 -1.91998,0 -3.83995,0 -5.75993,0 z m -3.15996,2.27998 c 3.74018,0.66959 1.39487,4.52405 1.17106,6.92622 -0.95788,2.55728 -0.12328,6.70097 -3.65102,7.27359 -5.94047,-0.73059 -1.99198,-13.33049 2.47996,-14.19981 z m -5.47993,23.2797 c 1.08673,-3.94071 6.14426,-4.07476 2.63997,0.42499 -0.59647,1.30784 -2.57537,1.11037 -2.63997,-0.42499 z"
         id="path3004" />
      <path
         d="m 149.15416,323.07673 c -1.41331,6.66658 -2.82663,13.33317 -4.23994,19.99975 1.7933,-0.44821 5.05021,0.90952 5.90694,-0.69434 1.05764,-4.99516 2.11529,-9.99031 3.17294,-14.98546 3.17199,-4.23556 4.83443,5.44835 7.88676,-0.68185 1.68992,-6.36936 -7.59479,-2.00141 -7.25427,-2.33128 0.95836,-2.55543 -3.46752,-0.78238 -5.03554,-1.30682 l -0.35487,0 -0.082,0 z"
         id="path3006" />
      <path
         d="m 172.13719,322.67674 c -6.90658,-0.22558 -10.68277,7.06935 -10.49099,13.17806 -1.93915,7.32477 8.21372,10.03648 11.86597,4.47671 3.16487,-4.62518 2.48053,-10.04447 8.47817,-11.95937 1.99176,-3.69268 -6.65191,4.20673 -5.26884,-1.96606 -0.38531,-2.238 -2.27208,-3.86491 -4.58431,-3.72934 z m -2.51997,16.75978 c -5.69786,-1.53533 -1.74808,-15.64963 3.89495,-13.85482 0.29523,2.18464 -2.6459,5.28056 0.28566,6.8805 -0.56602,2.49793 -1.03222,6.51339 -4.18061,6.97432 z"
         id="path3008" />
      <path
         d="m 188.85594,322.67674 c -6.90658,-0.22558 -10.68277,7.06935 -10.49099,13.17806 -1.93915,7.32477 8.21372,10.03648 11.86597,4.47671 3.16487,-4.62518 2.48053,-10.04447 8.47817,-11.95937 1.99176,-3.69268 -6.65191,4.20673 -5.26884,-1.96606 -0.38531,-2.238 -2.27208,-3.86491 -4.58431,-3.72934 z m -2.51997,16.75978 c -5.69786,-1.53533 -1.74808,-15.64963 3.89495,-13.85482 0.29523,2.18464 -2.6459,5.28056 0.28566,6.8805 -0.56602,2.49793 -1.03222,6.51339 -4.18061,6.97432 z"
         id="path3010" />
      <path
         d="m 208.45465,322.27674 c -4.76805,1.01797 -0.31307,4.29469 0.18245,5.23684 -0.0999,3.94272 -3.50713,14.66606 -8.06234,10.64296 0.82104,-5.05837 2.07977,-10.04916 3.07996,-15.07981 -1.79332,0.44821 -5.05019,-0.90951 -5.90697,0.69434 -0.8904,5.33483 -2.79027,10.57848 -2.84213,15.99248 2.39037,6.5412 11.95565,2.3521 13.51902,-2.94699 1.41266,-3.77778 5.26732,-12.50395 0.03,-14.53982 z"
         id="path3012" />
      <path
         d="m 216.65539,336.75656 c 1.82637,-3.29135 12.45722,-5.42452 8.40712,-12.42702 -4.31626,-3.98857 -11.18008,-0.18907 -12.47309,4.938 -2.64706,5.32469 -1.72993,15.58062 6.45999,13.6041 3.21146,0.0565 11.56926,-7.34603 7.63148,-7.95506 -1.31031,3.67322 -9.44905,8.78102 -10.0255,1.83998 z m 6.75991,-9.67988 c -0.38412,6.61838 -9.68728,7.58394 -4.38494,0.49 0.61269,-2.28406 4.54431,-4.38697 4.38494,-0.49 z"
         id="path3014" />
      <path
         d="m 231.91412,323.47673 c 0.79591,7.37721 -10.0379,11.61552 -4.38494,18.44976 6.76439,4.04903 12.044,-1.9943 16.50479,-6.20992 -1.54582,-3.53789 -4.4846,4.55703 -3.80145,-1.75034 -2.15826,-3.03423 -1.12266,-10.49439 -3.561,-11.47379 -1.5858,0.32809 -3.1716,0.65619 -4.7574,0.98429 z m 0.04,11.63985 c -2.24371,-1.89854 0.54364,-8.31928 0.81233,-7.87197 1.21974,4.25171 4.16458,15.67954 -3.98729,12.65691 -3.62175,-5.25256 3.44412,0.26065 3.17496,-4.78494 z"
         id="path3016" />
      <path
         d="m 245.00417,323.07673 c -0.94748,5.56685 -2.86407,11.04698 -3.02701,16.68682 3.18619,7.47746 11.39126,0.21141 14.38686,-3.84698 -2.63397,0.60057 -9.63264,6.94983 -8.33285,0.0657 0.91097,-4.30183 1.82195,-8.60366 2.73292,-12.90549 -1.91997,0 -3.83995,0 -5.75992,0 z m 0.75999,-5.27993 c 0.57597,6.96332 10.64334,0.29579 4.40243,-2.94744 -2.00885,-0.94181 -4.48941,0.74599 -4.40243,2.94744 z"
         id="path3018" />
      <path
         d="m 263.06532,340.59651 c -2.97134,2.26584 -6.66586,0.70345 -3.17606,-2.58515 2.85866,-4.97821 5.71733,-9.95642 8.57599,-14.93463 -4.53993,0.25437 -9.25453,-0.60217 -13.64826,0.63141 -5.6307,4.84224 4.32125,7.36201 2.56341,1.13857 4.74059,-1.34625 4.6395,0.85651 2.18764,3.91062 -2.74086,4.77305 -5.48171,9.5461 -8.22257,14.31915 4.53993,-0.25436 9.25453,0.60216 13.64826,-0.6314 5.93353,-3.37957 -3.78688,-9.4822 -1.92841,-1.84857 z"
         id="path3020" />
      <path
         d="m 273.21789,336.75656 c 1.82637,-3.29135 12.45722,-5.42452 8.40712,-12.42702 -4.31626,-3.98857 -11.18008,-0.18907 -12.47309,4.938 -2.64706,5.32469 -1.72993,15.58062 6.45999,13.6041 3.21146,0.0565 11.56926,-7.34603 7.63148,-7.95506 -1.31031,3.67322 -9.44905,8.78102 -10.0255,1.83998 z m 6.75991,-9.67988 c -0.38412,6.61838 -9.68728,7.58394 -4.38494,0.49 0.61269,-2.28406 4.54431,-4.38697 4.38494,-0.49 z"
         id="path3022" />
      <path
         d="m 285.71666,323.07673 c -1.41331,6.66658 -2.82663,13.33317 -4.23994,19.99975 1.7933,-0.44821 5.05021,0.90952 5.90694,-0.69434 1.05764,-4.99516 2.11529,-9.99031 3.17294,-14.98546 3.17199,-4.23556 4.83443,5.44835 7.88676,-0.68185 1.68992,-6.36936 -7.59479,-2.00141 -7.25427,-2.33128 0.95836,-2.55543 -3.46752,-0.78238 -5.03554,-1.30682 l -0.35487,0 -0.082,0 z"
         id="path3024" />
    </g>
  </g>
</svg>
