<?xml version="1.0" encoding="UTF-8" standalone="no"?>
<!-- Created with Inkscape (http://www.inkscape.org/) -->

<svg
   xmlns:dc="http://purl.org/dc/elements/1.1/"
   xmlns:cc="http://creativecommons.org/ns#"
   xmlns:rdf="http://www.w3.org/1999/02/22-rdf-syntax-ns#"
   xmlns:svg="http://www.w3.org/2000/svg"
   xmlns="http://www.w3.org/2000/svg"
   version="1.1"
   width="744.09448"
   height="1052.3622"
   id="svg2">
  <defs
     id="defs4" />
  <metadata
     id="metadata7">
    <rdf:RDF>
      <cc:Work
         rdf:about="">
        <dc:format>image/svg+xml</dc:format>
        <dc:type
           rdf:resource="http://purl.org/dc/dcmitype/StillImage" />
        <dc:title></dc:title>
      </cc:Work>
    </rdf:RDF>
  </metadata>
  <g
     id="layer1">
    <g
       id="text3322"
       style="font-size:26.04941368px;font-style:normal;font-variant:normal;font-weight:normal;font-stretch:normal;line-height:125%;letter-spacing:0px;word-spacing:0px;fill:#000000;fill-opacity:1;stroke:none;font-family:'Lobster 1.3';-inkscape-font-specification:'Lobster 1.3'">
      <path
         d="m 113.57871,410.4421 c 0.81075,-4.07204 -4.60383,-4.51536 -6.28597,-2.70433 0.4544,-2.12894 0.90879,-4.25787 1.36319,-6.3868 -1.28509,0.17366 -2.57017,0.34732 -3.85526,0.52098 -1.25904,5.90446 -2.51808,11.80892 -3.77712,17.71338 1.25036,0 2.50071,0 3.75107,0 0.74674,-3.50794 1.49348,-7.01589 2.24022,-10.52383 2.80446,-1.97637 3.1626,1.82064 2.30502,3.70435 -0.31437,2.1099 -1.71337,5.0181 0.60121,6.43515 2.89407,1.88313 7.7608,-3.25429 7.46178,-4.27846 -1.2603,1.55971 -6.02176,3.88283 -4.74067,-0.1158 0.31217,-1.45488 0.62435,-2.90976 0.93653,-4.36464 z"
         id="path3327" />
      <path
         d="m 123.8585,406.56079 c -1.20829,0.58154 -5.91388,-0.46865 -6.98809,2.81267 -1.46568,2.87567 -3.16975,7.77299 -0.068,10.06737 2.80699,2.02208 4.8362,-3.54479 6.1834,-0.33741 2.93339,2.14073 7.91912,-3.11074 7.64596,-4.18088 -1.26862,1.5597 -5.98778,3.87771 -4.76836,-0.11615 0.58204,-2.74854 1.16409,-5.49707 1.74613,-8.2456 -1.25036,0 -2.50072,0 -3.75108,0 z m -1.69319,1.4848 c 2.29155,0.0766 0.52234,2.5587 0.54458,3.93201 -0.63358,1.86214 -0.24525,4.36014 -2.10672,5.50103 -3.70986,-0.33052 -1.37729,-6.11531 -0.21788,-8.22801 0.40348,-0.60149 1.01174,-1.1787 1.78002,-1.20503 z"
         id="path3329" />
      <path
         d="m 140.1369,410.4421 c 0.81075,-4.07204 -4.60383,-4.51536 -6.28597,-2.70433 0.4544,-2.12894 0.90879,-4.25787 1.36319,-6.3868 -1.28509,0.17366 -2.57017,0.34732 -3.85526,0.52098 -1.25904,5.90446 -2.51808,11.80892 -3.77712,17.71338 1.25036,0 2.50071,0 3.75107,0 0.74674,-3.50794 1.49348,-7.01589 2.24022,-10.52383 2.80438,-1.97638 3.16273,1.82065 2.30512,3.70435 -0.31438,2.10989 -1.71338,5.01809 0.60119,6.43515 2.89407,1.88313 7.7608,-3.25429 7.46178,-4.27846 -1.2603,1.55971 -6.02175,3.88283 -4.74068,-0.1158 0.31215,-1.45488 0.62431,-2.90976 0.93646,-4.36464 z"
         id="path3331" />
      <path
         d="m 150.41669,406.56079 c -1.20829,0.58155 -5.91388,-0.46865 -6.98808,2.81267 -1.46569,2.87567 -3.16976,7.773 -0.068,10.06737 2.807,2.02207 4.83619,-3.54478 6.1834,-0.33741 2.93338,2.14072 7.91912,-3.11074 7.64595,-4.18088 -1.26862,1.5597 -5.98777,3.87771 -4.76836,-0.11615 0.58204,-2.74854 1.16408,-5.49707 1.74612,-8.2456 -1.25036,0 -2.50071,0 -3.75107,0 z m -1.69319,1.4848 c 2.29156,0.0766 0.52235,2.5587 0.54458,3.93201 -0.63358,1.86214 -0.24525,4.36014 -2.10671,5.50103 -3.70985,-0.33051 -1.37731,-6.11532 -0.21789,-8.22801 0.40348,-0.60149 1.01174,-1.1787 1.78002,-1.20503 z"
         id="path3333" />
    </g>
    <g
       transform="matrix(0.25881905,0.96592583,-0.96592583,0.25881905,0,0)"
       id="text3335"
       style="font-size:40px;font-style:normal;font-variant:normal;font-weight:normal;font-stretch:normal;line-height:125%;letter-spacing:0px;word-spacing:0px;fill:#000000;fill-opacity:1;stroke:none;font-family:'Lobster 1.3';-inkscape-font-specification:'Lobster 1.3'">
      <path
         d="m 394.44665,41.517191 c -0.0202,5.42187 8.87168,2.740207 5.81805,-1.779348 -1.66436,-2.610942 -5.90494,-1.328593 -5.81805,1.779348 z m 1.99997,-9.599876 c -0.0202,5.421871 8.87168,2.740215 5.81805,-1.779343 -1.66436,-2.610943 -5.90493,-1.328596 -5.81805,1.779343 z"
         id="path3342" />
      <path
         d="m 407.12308,46.917122 c 0,-9.811198 0,-19.622396 0,-29.433594 6.50093,0.197819 13.71779,-0.9831 19.31135,3.077259 7.90527,5.983461 6.74351,20.462114 -2.39684,24.66261 -5.32504,2.326862 -11.26659,1.551034 -16.91451,1.693725 z m 3.63281,-26.347656 c 0,7.753906 0,15.507812 0,23.261718 5.21642,-0.0012 11.47958,0.445086 15.00106,-4.154048 2.91858,-4.446126 2.9222,-10.975645 -0.36362,-15.237119 -3.58115,-4.293746 -9.57452,-3.861943 -14.63744,-3.870551 z"
         id="path3344"
         style="font-style:normal;font-variant:normal;font-weight:normal;font-stretch:normal;font-family:Meiryo UI;-inkscape-font-specification:Meiryo UI" />
    </g>
  </g>
</svg>
