<?xml version="1.0" encoding="UTF-8" standalone="no"?>
<!-- Created with Inkscape (http://www.inkscape.org/) -->

<svg
   xmlns:dc="http://purl.org/dc/elements/1.1/"
   xmlns:cc="http://creativecommons.org/ns#"
   xmlns:rdf="http://www.w3.org/1999/02/22-rdf-syntax-ns#"
   xmlns:svg="http://www.w3.org/2000/svg"
   xmlns="http://www.w3.org/2000/svg"
   version="1.1"
   width="744.09448"
   height="1052.3622"
   id="svg2">
  <defs
     id="defs4" />
  <metadata
     id="metadata7">
    <rdf:RDF>
      <cc:Work
         rdf:about="">
        <dc:format>image/svg+xml</dc:format>
        <dc:type
           rdf:resource="http://purl.org/dc/dcmitype/StillImage" />
        <dc:title></dc:title>
      </cc:Work>
    </rdf:RDF>
  </metadata>
  <g
     id="layer1">
    <g
       id="text3322"
       style="font-size:26.04941368px;font-style:normal;font-variant:normal;font-weight:normal;font-stretch:normal;line-height:125%;letter-spacing:0px;word-spacing:0px;fill:#000000;fill-opacity:1;stroke:none;font-family:'Lobster 1.3';-inkscape-font-specification:'Lobster 1.3'">
      <path
         d="m 113.57871,410.4421 c 0.025,-0.10419 0.0401,-0.20838 0.0456,-0.31259 0.005,-0.10419 0.008,-0.20838 0.007,-0.31259 -0.0369,-0.89922 -0.36036,-1.66007 -0.97033,-2.28255 -0.60999,-0.62245 -1.2851,-0.94698 -2.02532,-0.97358 -0.5644,0.0103 -1.13531,0.14599 -1.71272,0.40702 -0.57743,0.26104 -1.13532,0.58557 -1.67366,0.97358 l 1.40665,-6.59042 -3.85526,0.52098 -3.77712,17.71338 3.75107,0 2.24022,-10.52383 c 0.25614,-0.18233 0.51229,-0.31909 0.76845,-0.41027 0.25614,-0.0912 0.53834,-0.13675 0.84659,-0.13676 0.35763,0.005 0.64525,0.14437 0.86288,0.41678 0.21761,0.27244 0.3294,0.64581 0.33538,1.12011 -1e-5,0.21275 -0.0261,0.43851 -0.0782,0.67728 l -0.98986,4.68883 c -0.0521,0.24585 -0.0912,0.47703 -0.11722,0.69356 -0.0261,0.21654 -0.0391,0.42819 -0.0391,0.63495 0.008,0.97304 0.29196,1.69047 0.85311,2.1523 0.56114,0.46183 1.35346,0.69085 2.37698,0.68705 0.69367,-0.0354 1.43944,-0.34957 2.23733,-0.94259 0.79786,-0.59302 1.54942,-1.25261 2.25469,-1.97877 0.70524,-0.72615 1.26578,-1.30663 1.68161,-1.74143 l -0.88567,0 c -0.53402,0.46021 -1.1071,0.94646 -1.71924,1.45875 -0.61216,0.5123 -1.18524,0.79016 -1.71924,0.83357 -0.49874,-0.004 -0.8428,-0.0933 -1.03219,-0.267 -0.18941,-0.17366 -0.2795,-0.40593 -0.27026,-0.69681 0.004,-0.23878 0.0478,-0.51664 0.13025,-0.83358 z"
         id="path3327" />
      <path
         d="m 123.8585,406.56079 -0.15629,0.67727 c -0.2388,-0.19807 -0.51014,-0.35545 -0.81404,-0.47214 -0.30391,-0.11666 -0.61433,-0.17636 -0.93125,-0.17908 -1.72439,0.0386 -3.08602,0.55765 -4.08488,1.55715 -0.99888,0.99953 -1.70831,2.24795 -2.12831,3.74528 -0.42,1.49735 -0.62389,3.01205 -0.61167,4.54412 -0.0217,0.81024 0.20405,1.55372 0.67727,2.23045 0.47323,0.67673 1.32416,1.03599 2.55281,1.07778 0.79395,-0.0222 1.48534,-0.24475 2.07416,-0.66751 0.58881,-0.42275 1.07832,-0.91226 1.46852,-1.46851 0.17474,0.6751 0.53508,1.17438 1.08103,1.49782 0.54594,0.32344 1.24493,0.48408 2.09696,0.48191 0.69366,-0.0354 1.43944,-0.34957 2.23732,-0.94259 0.79786,-0.59302 1.54943,-1.25261 2.25469,-1.97877 0.70524,-0.72615 1.26578,-1.30663 1.68162,-1.74143 l -0.88567,0 c -0.53402,0.46021 -1.1071,0.94646 -1.71924,1.45875 -0.61217,0.5123 -1.18525,0.79016 -1.71924,0.83357 -0.51014,-0.005 -0.85746,-0.0988 -1.04196,-0.28003 -0.18453,-0.18125 -0.27136,-0.41786 -0.26049,-0.70983 0.001,-0.11831 0.0119,-0.24638 0.0326,-0.38423 0.0206,-0.13784 0.0445,-0.27894 0.0716,-0.4233 l 1.87554,-8.85668 z m -1.69319,1.4848 c 0.18668,-0.003 0.3929,0.0293 0.61867,0.0977 0.22575,0.0684 0.44499,0.19212 0.65773,0.3712 l -1.45874,6.903 c -0.0782,0.3126 -0.13026,0.59914 -0.1563,0.85962 -0.24856,0.37338 -0.51339,0.68162 -0.7945,0.92475 -0.28111,0.24312 -0.572,0.36903 -0.87264,0.37771 -0.34787,0.0206 -0.68108,-0.0923 -0.99963,-0.33864 -0.31857,-0.24638 -0.48897,-0.74999 -0.51122,-1.51085 0.007,-1.21015 0.16643,-2.39908 0.47757,-3.56679 0.31114,-1.1677 0.73082,-2.13859 1.25904,-2.91267 0.52821,-0.77407 1.12155,-1.17574 1.78002,-1.20501 z"
         id="path3329" />
      <path
         d="m 140.1369,410.4421 c 0.0249,-0.10419 0.0402,-0.20838 0.0456,-0.31259 0.005,-0.10419 0.008,-0.20838 0.007,-0.31259 -0.0369,-0.89922 -0.36036,-1.66007 -0.97033,-2.28255 -0.60999,-0.62245 -1.2851,-0.94698 -2.02532,-0.97358 -0.5644,0.0103 -1.13531,0.14599 -1.71272,0.40702 -0.57743,0.26104 -1.13531,0.58557 -1.67366,0.97358 l 1.40665,-6.59042 -3.85526,0.52098 -3.77712,17.71338 3.75107,0 2.24022,-10.52383 c 0.25615,-0.18233 0.51229,-0.31909 0.76845,-0.41027 0.25614,-0.0912 0.53834,-0.13675 0.8466,-0.13676 0.35762,0.005 0.64525,0.14437 0.86287,0.41678 0.21761,0.27244 0.32941,0.64581 0.33538,1.12011 0,0.21275 -0.026,0.43851 -0.0781,0.67728 l -0.98987,4.68883 c -0.0521,0.24585 -0.0912,0.47703 -0.11722,0.69356 -0.0261,0.21654 -0.0391,0.42819 -0.0391,0.63495 0.008,0.97304 0.29196,1.69047 0.8531,2.1523 0.56114,0.46183 1.35346,0.69085 2.37698,0.68705 0.69367,-0.0354 1.43944,-0.34957 2.23733,-0.94259 0.79786,-0.59302 1.54942,-1.25261 2.25469,-1.97877 0.70524,-0.72615 1.26578,-1.30663 1.68161,-1.74143 l -0.88567,0 c -0.53402,0.46021 -1.10709,0.94646 -1.71923,1.45875 -0.61217,0.5123 -1.18525,0.79016 -1.71924,0.83357 -0.49875,-0.004 -0.84281,-0.0933 -1.0322,-0.267 -0.18941,-0.17366 -0.27949,-0.40593 -0.27026,-0.69681 0.004,-0.23878 0.0478,-0.51664 0.13025,-0.83358 z"
         id="path3331" />
      <path
         d="m 150.41669,406.56079 -0.15629,0.67727 c -0.23879,-0.19807 -0.51014,-0.35545 -0.81404,-0.47214 -0.30391,-0.11666 -0.61433,-0.17636 -0.93125,-0.17908 -1.72439,0.0386 -3.08602,0.55765 -4.08488,1.55715 -0.99887,0.99953 -1.70831,2.24795 -2.12831,3.74528 -0.42,1.49735 -0.62389,3.01205 -0.61167,4.54412 -0.0217,0.81024 0.20405,1.55372 0.67728,2.23045 0.47322,0.67673 1.32416,1.03599 2.55281,1.07778 0.79395,-0.0222 1.48533,-0.24475 2.07415,-0.66751 0.58882,-0.42275 1.07832,-0.91226 1.46852,-1.46851 0.17474,0.6751 0.53508,1.17438 1.08104,1.49782 0.54593,0.32344 1.24492,0.48408 2.09695,0.48191 0.69367,-0.0354 1.43944,-0.34957 2.23732,-0.94259 0.79787,-0.59302 1.54943,-1.25261 2.2547,-1.97877 0.70524,-0.72615 1.26577,-1.30663 1.68161,-1.74143 l -0.88567,0 c -0.53402,0.46021 -1.1071,0.94646 -1.71924,1.45875 -0.61216,0.5123 -1.18524,0.79016 -1.71924,0.83357 -0.51014,-0.005 -0.85746,-0.0988 -1.04196,-0.28003 -0.18452,-0.18125 -0.27136,-0.41786 -0.26049,-0.70983 0.001,-0.11831 0.0119,-0.24638 0.0326,-0.38423 0.0206,-0.13784 0.0445,-0.27894 0.0716,-0.4233 l 1.87553,-8.85668 z m -1.69319,1.4848 c 0.18668,-0.003 0.3929,0.0293 0.61867,0.0977 0.22575,0.0684 0.44499,0.19212 0.65774,0.3712 l -1.45875,6.903 c -0.0782,0.3126 -0.13025,0.59914 -0.1563,0.85962 -0.24855,0.37338 -0.51339,0.68162 -0.79449,0.92475 -0.28112,0.24312 -0.572,0.36903 -0.87265,0.37771 -0.34787,0.0206 -0.68108,-0.0923 -0.99963,-0.33864 -0.31856,-0.24638 -0.48897,-0.74999 -0.51121,-1.51085 0.007,-1.21015 0.16642,-2.39908 0.47756,-3.56679 0.31114,-1.1677 0.73082,-2.13859 1.25904,-2.91267 0.52821,-0.77407 1.12155,-1.17574 1.78002,-1.20501 z"
         id="path3333" />
    </g>
  </g>
</svg>
