<?xml version="1.0" encoding="UTF-8" standalone="no"?>
<!-- Created with Inkscape (http://www.inkscape.org/) -->

<svg
   xmlns:dc="http://purl.org/dc/elements/1.1/"
   xmlns:cc="http://creativecommons.org/ns#"
   xmlns:rdf="http://www.w3.org/1999/02/22-rdf-syntax-ns#"
   xmlns:svg="http://www.w3.org/2000/svg"
   xmlns="http://www.w3.org/2000/svg"
   version="1.1"
   width="744.09448"
   height="1052.3622"
   id="svg2">
  <defs
     id="defs4" />
  <metadata
     id="metadata7">
    <rdf:RDF>
      <cc:Work
         rdf:about="">
        <dc:format>image/svg+xml</dc:format>
        <dc:type
           rdf:resource="http://purl.org/dc/dcmitype/StillImage" />
        <dc:title></dc:title>
      </cc:Work>
    </rdf:RDF>
  </metadata>
  <g
     id="layer1">
    <g
       id="text3127"
       style="font-size:40px;font-style:normal;font-variant:normal;font-weight:normal;font-stretch:normal;line-height:125%;letter-spacing:0px;word-spacing:0px;fill:#000000;fill-opacity:1;stroke:none;font-family:'Lobster 1.3';-inkscape-font-specification:'Lobster 1.3'">
      <path
         d="m 125.48134,316.34595 c -6.75263,-0.64747 -15.71634,3.67505 -15.56739,11.3083 1.36795,4.29313 5.70945,3.2673 3.74753,-1.36357 0.0971,-5.12689 7.73941,-10.01304 4.51686,-2.61448 -1.60561,7.52979 -3.21123,15.05957 -4.81684,22.58936 1.97909,-0.57361 6.02663,1.40623 6.08609,-1.53709 0.95793,-4.51423 1.91586,-9.02847 2.87379,-13.54271 5.7056,-1.93792 4.55311,2.50031 3.49273,6.00321 -0.64425,3.02553 -1.2885,6.05106 -1.93275,9.07659 1.97929,-0.57356 6.02614,1.40612 6.08664,-1.53697 2.01107,-9.46088 4.02214,-18.92176 6.03321,-28.38264 -1.97916,0.57359 -6.02646,-1.40619 -6.08629,1.53705 -0.71787,3.38093 -1.43574,6.76187 -2.15361,10.1428 -4.91686,1.40313 -5.27862,-0.37842 -3.81216,-4.5139 0.51073,-2.38865 1.02146,-4.7773 1.53219,-7.16595 z"
         id="path3132" />
      <path
         d="m 139.51586,339.94565 c 2.23762,-2.73266 14.11327,-7.5024 7.09897,-13.46138 -6.75886,-2.8666 -12.05546,4.5242 -12.3052,10.6205 -2.92782,8.51313 8.37576,12.08112 13.13917,6.01049 3.37926,-1.79322 4.57103,-8.32482 0.70194,-2.93586 -2.00031,2.93109 -8.41974,5.44263 -8.63488,-0.23375 z m 6.75991,-9.67988 c 0.67541,4.92907 -9.56872,8.96938 -4.98822,1.79873 0.24974,-2.27455 4.8098,-6.69121 4.98822,-1.79873 z"
         id="path3134" />
      <path
         d="m 153.49462,319.06591 c -1.50894,7.62086 -3.48227,15.17195 -4.67994,22.83971 1.35351,8.48909 11.2802,2.27634 13.91925,-2.25728 0.0711,-1.99208 -9.44974,7.37967 -7.83751,-0.1669 1.50604,-7.07184 3.01208,-14.14368 4.51812,-21.21552 -1.97331,0.26666 -3.94661,0.53333 -5.91992,0.79999 z"
         id="path3136" />
      <path
         d="m 164.90087,319.06591 c -1.50894,7.62086 -3.48227,15.17195 -4.67994,22.83971 1.35351,8.48909 11.2802,2.27634 13.91925,-2.25728 0.0711,-1.99208 -9.44974,7.37967 -7.83751,-0.1669 1.50604,-7.07184 3.01208,-14.14368 4.51812,-21.21552 -1.97331,0.26666 -3.94661,0.53333 -5.91992,0.79999 z"
         id="path3138" />
      <path
         d="m 182.10704,325.86583 c -7.67301,-0.18435 -11.1222,8.36576 -10.50123,14.93196 0.0308,8.95261 13.04164,6.12476 14.03805,-1.02526 -0.86844,-5.69538 5.34193,-5.64806 6.66305,-9.62676 -4.24759,4.05121 -5.74198,0.70139 -7.0082,-3.20698 -0.86071,-0.78518 -2.06557,-1.03511 -3.19167,-1.07296 z m -2.51997,16.75978 c -5.97525,-1.19842 -1.09087,-17.40915 4.20431,-13.20169 -3.48278,3.87714 2.15274,7.29329 -1.90325,11.80437 -0.51717,0.76028 -1.35682,1.35794 -2.30106,1.39732 z"
         id="path3140" />
      <path
         d="m 213.13759,316.34595 c -6.75263,-0.64747 -15.71634,3.67505 -15.56739,11.3083 1.54734,4.41516 5.50842,3.11226 3.75281,-1.42029 -0.15048,-4.8081 8.47893,-10.60711 6.49465,-2.96693 0,7.66618 0,15.33235 0,22.99853 2.07367,-0.54503 5.79477,1.33617 6.33954,-1.46051 2.50009,-6.29974 5.00019,-12.59948 7.50028,-18.89922 0,6.78658 0,13.57315 0,20.35973 2.06237,-0.54938 5.82246,1.34683 6.30927,-1.47216 3.52351,-9.44248 7.04701,-18.88497 10.57052,-28.32745 -3.12524,-1.06716 -3.50487,1.7643 -4.25584,4.06847 -2.43468,6.80374 -4.86935,13.60747 -7.30402,20.41121 0,-8.15989 0,-16.31979 0,-24.47968 -2.27911,0.27987 -5.77783,-1.14817 -5.84491,2.22937 -2.54497,7.41677 -5.08994,14.83354 -7.63491,22.25031 -0.12,-8.19989 -0.24,-16.39979 -0.36,-24.59968 z"
         id="path3142" />
      <path
         d="m 246.32579,325.86583 c -7.67301,-0.18435 -11.1222,8.36576 -10.50123,14.93196 0.0308,8.95261 13.04164,6.12476 14.03805,-1.02526 -0.86844,-5.69538 5.34193,-5.64806 6.66305,-9.62676 -4.24759,4.05121 -5.74198,0.70139 -7.0082,-3.20698 -0.86071,-0.78518 -2.06557,-1.03511 -3.19167,-1.07296 z m -2.51997,16.75978 c -5.97525,-1.19842 -1.09087,-17.40915 4.20431,-13.20169 -3.48278,3.87714 2.15274,7.29329 -1.90325,11.80437 -0.51717,0.76028 -1.35682,1.35794 -2.30106,1.39732 z"
         id="path3144" />
      <path
         d="m 255.76463,326.26582 c -1.41331,6.66658 -2.82663,13.33316 -4.23994,19.99974 1.97883,-0.57366 6.02725,1.40636 6.08541,-1.53723 0.99815,-4.71419 1.99631,-9.42837 2.99447,-14.14256 3.07009,-4.10092 5.02104,5.22191 7.88677,-0.68186 1.91715,-7.68134 -9.22812,0.73588 -6.96678,-3.63809 -1.91998,0 -3.83995,0 -5.75993,0 z"
         id="path3146" />
      <path
         d="m 272.94774,319.06591 c -1.50894,7.62086 -3.48225,15.17196 -4.67994,22.83971 1.35352,8.48909 11.2802,2.27635 13.91926,-2.25728 0.071,-1.99208 -9.44975,7.37967 -7.83751,-0.1669 1.50604,-7.07184 3.01208,-14.14368 4.51812,-21.21552 -1.97331,0.26666 -3.94662,0.53333 -5.91993,0.79999 z"
         id="path3148" />
      <path
         d="m 294.11386,319.06591 c -0.58666,2.74663 -1.17331,5.49327 -1.75997,8.2399 -5.55513,-3.31644 -11.68868,2.48438 -12.44688,8.00559 -2.59227,5.19203 0.56514,14.47963 7.43194,10.16917 2.60296,-4.82802 5.2667,3.75877 9.62654,-0.0597 2.81299,-1.09294 10.02021,-9.61571 3.64203,-4.65771 -4.32381,4.6223 -6.43875,-0.53908 -4.40339,-4.3567 1.27655,-6.04684 2.55311,-12.09368 3.82966,-18.14052 -1.97331,0.26666 -3.94662,0.53333 -5.91993,0.79999 z m -4.11994,9.47988 c 3.69449,0.38619 0.47206,4.82323 0.57925,7.25378 -0.30457,3.05049 -2.04197,10.16882 -5.75731,6.0023 -0.41607,-4.2455 0.36417,-11.77014 5.17806,-13.25608 z"
         id="path3150" />
    </g>
  </g>
</svg>
