<?xml version="1.0" encoding="UTF-8" standalone="no"?>
<!-- Created with Inkscape (http://www.inkscape.org/) -->

<svg
   xmlns:dc="http://purl.org/dc/elements/1.1/"
   xmlns:cc="http://creativecommons.org/ns#"
   xmlns:rdf="http://www.w3.org/1999/02/22-rdf-syntax-ns#"
   xmlns:svg="http://www.w3.org/2000/svg"
   xmlns="http://www.w3.org/2000/svg"
   version="1.1"
   width="744.09448"
   height="1052.3622"
   id="svg2">
  <defs
     id="defs4" />
  <metadata
     id="metadata7">
    <rdf:RDF>
      <cc:Work
         rdf:about="">
        <dc:format>image/svg+xml</dc:format>
        <dc:type
           rdf:resource="http://purl.org/dc/dcmitype/StillImage" />
        <dc:title></dc:title>
      </cc:Work>
    </rdf:RDF>
  </metadata>
  <g
     id="layer1">
    <g
       id="text3352"
       style="font-size:40px;font-style:normal;font-variant:normal;font-weight:normal;font-stretch:normal;line-height:125%;letter-spacing:0px;word-spacing:0px;fill:#000000;fill-opacity:1;stroke:none;font-family:'Lobster 1.3';-inkscape-font-specification:'Lobster 1.3'">
      <path
         d="m 252.88531,337.78156 c 0.78057,-3.50251 -3.07157,-7.16575 -6.48679,-5.59944 -1.26315,0.0642 -3.92734,3.02647 -2.95708,0.4664 0.62799,-2.94226 1.25598,-5.88452 1.88397,-8.82678 -1.97331,0.26666 -3.94661,0.53333 -5.91992,0.79999 -1.93331,9.06655 -3.86662,18.1331 -5.79993,27.19965 1.91998,0 3.83995,0 5.75993,0 1.14665,-5.3866 2.2933,-10.77319 3.43995,-16.15979 1.99304,-2.00173 5.41445,-0.11712 4.1696,2.70372 -0.56668,3.03316 -1.44824,6.0219 -1.72963,9.09613 -0.36758,3.28759 3.4276,5.12335 6.19199,4.11822 3.37912,-1.40685 5.71541,-4.39811 8.24783,-6.91819 -1.91787,-0.43276 -2.89428,1.65632 -4.34964,2.51809 -1.60601,1.888 -5.47123,0.90358 -4.05942,-1.90174 0.53638,-2.49875 1.07276,-4.99751 1.60914,-7.49626 z"
         id="path3357" />
      <path
         d="m 258.55051,331.82164 c -1.00763,4.89553 -2.12929,9.7702 -3.05996,14.67981 -0.84432,3.20914 2.24977,5.91729 5.34312,5.2795 3.74474,-0.93754 6.17464,-4.29352 8.82683,-6.85863 -0.40386,-1.12479 -2.90149,1.14371 -3.75009,1.97912 -1.44921,1.98655 -5.72786,1.58525 -4.47994,-1.47998 0.95999,-4.53327 1.91997,-9.06655 2.87996,-13.59982 -1.91997,0 -3.83995,0 -5.75992,0 z m 0.75999,-5.27993 c -0.15568,2.73388 3.59618,4.23231 5.41993,2.23997 2.04692,-1.81994 0.46622,-5.58607 -2.25997,-5.43993 -1.72541,-0.0299 -3.19042,1.48412 -3.15996,3.19996 z"
         id="path3359" />
      <path
         d="m 284.29156,337.78156 c 0.78057,-3.50251 -3.07157,-7.16575 -6.48679,-5.59944 -1.26315,0.0642 -3.92734,3.02647 -2.95708,0.4664 0.62799,-2.94226 1.25598,-5.88452 1.88397,-8.82678 -1.97331,0.26666 -3.94661,0.53333 -5.91992,0.79999 -1.93331,9.06655 -3.86662,18.1331 -5.79993,27.19965 1.91998,0 3.83995,0 5.75993,0 1.14665,-5.3866 2.2933,-10.77319 3.43995,-16.15979 1.99304,-2.00173 5.41445,-0.11712 4.1696,2.70372 -0.56668,3.03316 -1.44824,6.0219 -1.72963,9.09613 -0.36758,3.28759 3.4276,5.12335 6.19199,4.11822 3.37912,-1.40685 5.71541,-4.39811 8.24783,-6.91819 -1.91787,-0.43276 -2.89428,1.65632 -4.34964,2.51809 -1.60601,1.888 -5.47123,0.90358 -4.05942,-1.90174 0.53638,-2.49875 1.07276,-4.99751 1.60914,-7.49626 z"
         id="path3361" />
      <path
         d="m 289.95676,331.82164 c -1.00763,4.89553 -2.12929,9.7702 -3.05996,14.67981 -0.84432,3.20914 2.24977,5.91729 5.34312,5.2795 3.74474,-0.93754 6.17464,-4.29352 8.82683,-6.85863 -0.40386,-1.12479 -2.90149,1.14371 -3.75009,1.97912 -1.44921,1.98655 -5.72786,1.58525 -4.47994,-1.47998 0.95999,-4.53327 1.91997,-9.06655 2.87996,-13.59982 -1.91997,0 -3.83995,0 -5.75992,0 z m 0.75999,-5.27993 c -0.15568,2.73388 3.59618,4.23231 5.41993,2.23997 2.04692,-1.81994 0.46622,-5.58607 -2.25997,-5.43993 -1.72541,-0.0299 -3.19042,1.48412 -3.15996,3.19996 z"
         id="path3363" />
    </g>
  </g>
</svg>
