<?xml version="1.0" encoding="UTF-8" standalone="no"?>
<!-- Created with Inkscape (http://www.inkscape.org/) -->

<svg
   xmlns:dc="http://purl.org/dc/elements/1.1/"
   xmlns:cc="http://creativecommons.org/ns#"
   xmlns:rdf="http://www.w3.org/1999/02/22-rdf-syntax-ns#"
   xmlns:svg="http://www.w3.org/2000/svg"
   xmlns="http://www.w3.org/2000/svg"
   version="1.1"
   width="744.09448"
   height="1052.3622"
   id="svg2">
  <defs
     id="defs4" />
  <metadata
     id="metadata7">
    <rdf:RDF>
      <cc:Work
         rdf:about="">
        <dc:format>image/svg+xml</dc:format>
        <dc:type
           rdf:resource="http://purl.org/dc/dcmitype/StillImage" />
        <dc:title></dc:title>
      </cc:Work>
    </rdf:RDF>
  </metadata>
  <g
     id="layer1">
    <g
       id="text3175"
       style="font-size:40px;font-style:normal;font-variant:normal;font-weight:normal;font-stretch:normal;text-align:center;line-height:125%;letter-spacing:0px;word-spacing:0px;text-anchor:middle;fill:#000000;fill-opacity:1;stroke:none;font-family:'Lobster 1.3';-inkscape-font-specification:'Lobster 1.3'">
      <path
         d="m 104.08013,314.07309 c -6.545785,-0.58909 -14.714939,3.233 -15.6398,10.31987 -0.428442,4.12173 6.241501,5.54599 3.747451,0.3773 -0.846631,-4.56834 7.823999,-11.42922 4.701267,-3.89175 -1.642921,7.70473 -3.285843,15.40947 -4.928764,23.1142 1.829255,-0.58079 5.62499,1.26598 5.996414,-1.11445 0.987824,-4.65512 1.975648,-9.31024 2.963472,-13.96536 5.57052,-1.89634 4.63881,2.32883 3.53358,5.81141 -0.65787,3.08946 -1.31573,6.17893 -1.9736,9.2684 1.82945,-0.58074 5.62454,1.26589 5.9968,-1.11437 2.04101,-9.60175 4.08203,-19.2035 6.12304,-28.80525 -1.82932,0.58077 -5.62483,-1.26595 -5.99654,1.11442 -0.74779,3.52181 -1.49557,7.04362 -2.24335,10.56543 -4.77811,1.3177 -5.3488,-0.226 -3.8477,-4.3477 0.52257,-2.44405 1.04515,-4.8881 1.56773,-7.33215 z"
         id="path3182" />
      <path
         d="m 123.67458,323.59297 c -7.31296,-0.20795 -10.89801,7.72883 -10.51987,14.07982 -1.18743,8.2076 10.72581,8.32941 13.09811,1.89076 1.46434,-4.84247 2.45683,-8.17096 7.2749,-10.27518 1.99403,-3.72452 -6.65267,4.22477 -5.26884,-1.96606 -0.3853,-2.23802 -2.27208,-3.8649 -4.5843,-3.72934 z m -2.51997,16.75978 c -5.97526,-1.19841 -1.09087,-17.40916 4.20431,-13.20169 -1.94726,2.2284 -1.3083,4.99039 -0.14484,6.94974 -0.57654,2.27384 -1.16499,5.91551 -4.05947,6.25195 z"
         id="path3184" />
      <path
         d="m 147.99323,329.95289 c 1.26154,-6.15723 -7.22997,-7.09882 -9.6775,-4.17066 1.52087,-3.13169 -3.13417,-1.30926 -4.91894,-1.78927 -1.31991,1.20932 -1.05465,4.3751 -1.78225,6.31546 -0.96702,4.56143 -1.93404,9.12286 -2.90106,13.68429 1.82825,-0.581 5.62718,1.26645 5.99448,-1.11486 1.05513,-5.01498 2.11027,-10.02996 3.1654,-15.04494 5.47458,-3.22608 4.32158,3.99826 3.29864,7.01875 -1.59676,3.94261 -0.88158,10.3773 4.92086,9.04317 3.29678,-0.12583 10.1861,-9.70132 3.96033,-4.32207 -5.23918,3.05822 -3.5517,-3.63989 -2.74352,-6.43552 0.22786,-1.06145 0.45571,-2.1229 0.68356,-3.18435 z"
         id="path3186" />
      <path
         d="m 162.78955,323.99296 c 0.0291,4.08764 -4.99342,-2.6892 -7.75118,1.10307 -4.98987,3.49311 -6.55474,10.76278 -5.1624,16.40155 0.91863,5.48583 9.03477,0.48324 8.74649,2.00728 -4.20706,0.84946 -10.56027,8.61851 -3.09548,10.42787 5.78821,1.01633 8.20888,-5.03433 8.73404,-9.71174 3.98899,0.72673 8.35808,-8.4821 6.14576,-7.56225 -2.28125,4.10336 -7.3385,6.82054 -4.67136,0.5962 0.93802,-4.42066 1.87603,-8.84132 2.81405,-13.26198 -1.91997,0 -3.83995,0 -5.75992,0 z m -3.15996,2.27997 c 3.97614,0.88846 1.12543,5.04017 1.01418,7.66274 -0.47298,3.00431 -1.14888,8.30776 -5.61412,5.99709 -1.75333,-3.82826 -0.10003,-12.44523 4.59994,-13.65983 z m -5.47993,23.2797 c 2.28136,-6.00161 6.31428,-1.75866 1.35998,1.31999 -0.71018,0.0228 -1.34855,-0.59452 -1.35998,-1.31999 z"
         id="path3188" />
      <path
         d="m 194.627,314.07309 c -6.54579,-0.58909 -14.71493,3.233 -15.6398,10.31987 -0.4283,4.12174 6.24145,5.54598 3.74745,0.3773 -0.84663,-4.56833 7.824,-11.42922 4.70127,-3.89175 -1.64292,7.70473 -3.28584,15.40947 -4.92876,23.1142 1.82957,-0.58072 5.62431,1.26584 5.99702,-1.11432 0.98762,-4.64183 1.97524,-9.28366 2.96286,-13.92549 9.85497,-0.28929 -4.05494,14.61749 4.71994,15.7198 6.51324,0.96192 0.31269,-4.20422 3.37996,-8.0949 3.14861,-4.84564 -0.50525,-10.98781 -5.17081,-9.83149 3.63691,-4.1844 7.27383,-8.36881 10.91074,-12.55321 -4.25444,-1.19372 -6.2523,2.18404 -8.30036,5.41502 -2.10827,2.50316 -6.388,9.85048 -4.21881,2.99264 0.6131,-2.84256 1.2262,-5.68511 1.8393,-8.52767 z"
         id="path3190" />
      <path
         d="m 213.04958,323.59297 c -7.31296,-0.20795 -10.89801,7.72883 -10.51987,14.07982 -1.18743,8.2076 10.72581,8.32941 13.09811,1.89076 1.46434,-4.84247 2.45683,-8.17096 7.2749,-10.27518 1.99403,-3.72452 -6.65267,4.22477 -5.26884,-1.96606 -0.3853,-2.23802 -2.27208,-3.8649 -4.5843,-3.72934 z m -2.51997,16.75978 c -5.97526,-1.19841 -1.09087,-17.40916 4.20431,-13.20169 -1.94726,2.2284 -1.3083,4.99039 -0.14484,6.94974 -0.57654,2.27384 -1.16499,5.91551 -4.05947,6.25195 z"
         id="path3192" />
      <path
         d="m 237.36823,329.95289 c 1.26154,-6.15723 -7.22997,-7.09882 -9.6775,-4.17066 1.52087,-3.13169 -3.13417,-1.30926 -4.91894,-1.78927 -1.31991,1.20932 -1.05465,4.3751 -1.78225,6.31546 -0.96702,4.56143 -1.93404,9.12286 -2.90106,13.68429 1.82825,-0.581 5.62718,1.26645 5.99448,-1.11486 1.05513,-5.01498 2.11027,-10.02996 3.1654,-15.04494 5.47458,-3.22608 4.32158,3.99826 3.29864,7.01875 -1.59676,3.94261 -0.88158,10.3773 4.92086,9.04317 3.29678,-0.12583 10.1861,-9.70132 3.96033,-4.32207 -5.23918,3.05822 -3.5517,-3.63989 -2.74352,-6.43552 0.22786,-1.06145 0.45571,-2.1229 0.68356,-3.18435 z"
         id="path3194" />
      <path
         d="m 252.16455,323.99296 c 0.0291,4.08764 -4.99342,-2.6892 -7.75118,1.10307 -4.98987,3.49311 -6.55474,10.76278 -5.1624,16.40155 0.91863,5.48583 9.03477,0.48324 8.74649,2.00728 -4.20706,0.84946 -10.56027,8.61851 -3.09548,10.42787 5.78821,1.01633 8.20888,-5.03433 8.73404,-9.71174 3.98899,0.72673 8.35808,-8.4821 6.14576,-7.56225 -2.28125,4.10336 -7.3385,6.82054 -4.67136,0.5962 0.93802,-4.42066 1.87603,-8.84132 2.81405,-13.26198 -1.91997,0 -3.83995,0 -5.75992,0 z m -3.15996,2.27997 c 3.97614,0.88846 1.12543,5.04017 1.01418,7.66274 -0.47298,3.00431 -1.14888,8.30776 -5.61412,5.99709 -1.75333,-3.82826 -0.10003,-12.44523 4.59994,-13.65983 z m -5.47993,23.2797 c 2.28136,-6.00161 6.31428,-1.75866 1.35998,1.31999 -0.71018,0.0228 -1.34855,-0.59452 -1.35998,-1.31999 z"
         id="path3196" />
      <path
         d="m 137.55646,368.55303 c -1.81331,8.47989 -3.62662,16.95979 -5.43993,25.43968 1.82926,-0.58079 5.62499,1.26598 5.99642,-1.11445 0.98782,-4.65512 1.97565,-9.31024 2.96347,-13.96536 9.76809,-0.20304 -4.0327,14.64928 4.71994,15.7598 6.51041,0.96031 0.31692,-4.19143 3.37995,-8.0799 2.55192,-3.55464 -0.57406,-8.80141 -0.79984,-10.0222 7.32419,-4.7182 0.92252,-14.53466 -6.59024,-12.54404 -5.9785,0.46255 -13.42926,4.56113 -13.11724,11.35483 1.07474,3.97908 5.77002,3.58294 3.70871,-0.94569 0.10116,-6.56233 8.86203,-10.90591 14.10865,-7.34265 5.0004,3.35521 -5.52913,14.23997 -4.5299,7.71248 0.50665,-2.35083 1.01329,-4.70166 1.51994,-7.05249 -1.97331,0.26666 -3.94662,0.53333 -5.91993,0.79999 z"
         id="path3198" />
      <path
         d="m 162.65895,373.59297 c -7.31296,-0.20794 -10.898,7.72884 -10.51986,14.07982 -1.18743,8.2076 10.72581,8.32941 13.0981,1.89076 1.46434,-4.84247 2.45683,-8.17096 7.2749,-10.27518 1.99405,-3.72453 -6.65266,4.22477 -5.26883,-1.96606 -0.38531,-2.23801 -2.27208,-3.8649 -4.58431,-3.72934 z m -2.51997,16.75978 c -5.97525,-1.19842 -1.09087,-17.40916 4.20432,-13.20169 -1.94727,2.22839 -1.3083,4.9904 -0.14484,6.94974 -0.57653,2.27385 -1.165,5.91551 -4.05948,6.25195 z"
         id="path3200" />
      <path
         d="m 180.81768,377.95291 c 6.7987,-0.7263 -2.78569,-6.85282 -6.11518,-3.17196 -5.6034,3.158 -7.2492,11.07685 -5.23202,16.80772 4.4007,5.97195 14.10457,-0.13041 15.4074,-4.75588 -3.10071,2.9757 -12.29743,6.74047 -10.81397,-1.6559 -1.23728,-2.89035 6.07721,-15.22663 6.75377,-7.22398 z"
         id="path3202" />
      <path
         d="m 198.31264,373.99296 c -2.67656,1.27786 -9.45718,9.4322 -7.00377,2.65801 0.76127,-3.55264 1.52255,-7.10527 2.28383,-10.6579 -1.90755,0.79444 -5.67647,-0.41914 -6.15751,1.9142 -1.85411,8.69515 -3.70823,17.39029 -5.56234,26.08544 1.82909,-0.58082 5.62536,1.26606 5.99609,-1.11452 0.68127,-3.21511 1.36254,-6.43023 2.04381,-9.64535 8.3214,-3.6116 0.50365,8.23249 5.62883,10.1744 4.10433,3.17718 12.42814,-5.7124 10.37096,-6.57444 -2.44855,4.46215 -8.70494,4.19603 -5.85643,-1.45277 2.42339,-4.29897 -6.09399,-5.96542 -4.59909,-6.54445 2.39186,-1.6142 4.78371,-3.22841 7.17557,-4.84262 -1.43998,0 -2.87997,0 -4.31995,0 z"
         id="path3204" />
      <path
         d="m 208.76401,374.39296 c 0.81758,7.29947 -11.14753,12.91019 -3.42636,18.96788 6.36113,3.07787 12.8035,-3.17811 15.08484,-7.33136 -1.58823,-1.65278 -3.95404,4.59227 -3.34008,-1.14702 -2.21808,-3.00239 -1.03057,-10.66204 -3.63412,-11.45867 -1.56142,0.32306 -3.12285,0.64611 -4.68428,0.96917 z m 0.04,11.63985 c -2.38461,-1.80628 0.64734,-8.39763 0.81233,-7.87197 1.0755,4.32311 4.36769,15.57264 -3.98729,12.65691 -3.62408,-4.64465 3.56218,-0.24724 3.17496,-4.78494 z"
         id="path3206" />
    </g>
  </g>
</svg>
