<?xml version="1.0" encoding="UTF-8" standalone="no"?>
<!-- Created with Inkscape (http://www.inkscape.org/) -->

<svg
   xmlns:dc="http://purl.org/dc/elements/1.1/"
   xmlns:cc="http://creativecommons.org/ns#"
   xmlns:rdf="http://www.w3.org/1999/02/22-rdf-syntax-ns#"
   xmlns:svg="http://www.w3.org/2000/svg"
   xmlns="http://www.w3.org/2000/svg"
   version="1.1"
   width="100%"
   height="100%"
   id="svg3053">
  <metadata
     id="metadata3061">
    <rdf:RDF>
      <cc:Work
         rdf:about="">
        <dc:format>image/svg+xml</dc:format>
        <dc:type
           rdf:resource="http://purl.org/dc/dcmitype/StillImage" />
        <dc:title></dc:title>
      </cc:Work>
    </rdf:RDF>
  </metadata>
  <defs
     id="defs3059" />
  <path
     d="m 212.48977,244.06697 c 10.28243,-54.9266 62.32001,-108.1999 114.78057,-115.09628 M 377,122 c 84.08174,0.80659 151.47957,52.57725 171,136 8.66667,22.66667 8.66667,43 0,61 -1.33333,45.33333 -23,82 -65,110 -52,32.66667 -105.66667,36.33333 -161,11 m -84,-96 c -1.33333,7.33333 2.33333,15.66667 11,25 0,10.66667 4,18.66667 12,24 4.66667,16.66667 19,30 43,40 M 148,263 c 40.66667,-11.33333 76.33333,-19.66667 107,-25 m -93,121 c 50,-14.66667 88.33333,-27.66667 115,-39 42.66667,-16.66667 67.66667,-39 75,-67 -15.33333,-12.66667 -47.66667,-17.66667 -97,-15 m -107,25 c -22,3.33333 -31.33333,20.33333 -28,51 8,32 22,47 42,45 m 202,-65 c -10,8.66667 -10,18.33333 0,29 4.66667,4 10.33333,4.33333 17,1 18.66667,10.66667 32,7 40,-11 8.66667,-16.66667 6,-26.33333 -8,-29 m -35,19 c 3.33333,14 13.66667,19.66667 31,17 m 9,-18 c -2,9.33333 -6.66667,14.66667 -14,16 m -5,-63 c -2,8.66667 -0.66667,17 4,25 m 0,-28 c -4.66667,-10.66667 -5.66667,-21.33333 -3,-32 14.66667,-70.66667 43.33333,-67.33333 86,10 m -14,21 c -6.66667,-7.33333 -12.66667,-14.33333 -18,-21 -17.33333,-10.66667 -30,-6 -38,14 -0.66667,7.33333 -2.33333,15 -5,23 -2.66667,9.33333 4,7.33333 20,-6 11.33333,-6.66667 25.33333,-9 42,-7 m -91,120 c -4,-22.66667 0,-34.33333 12,-35 6,0 12.66667,-1.66667 20,-5 16,-2.66667 25.33333,4.33333 28,21 0,6 2.66667,11 8,15 0,14.66667 -4,27.33333 -12,38 m -56,-29 c -4,9.33333 -3.33333,16 2,20 18,22 33.66667,24.33333 47,7 m -45,-30 c -4,12 -3.33333,18.66667 2,20 m -2,-20 c -2,-22.66667 3.66667,-33 17,-31 13.33333,-6.66667 22,-6.66667 26,0 2,6 5,12.33333 9,19 7.33333,4.66667 9,10.33333 5,17 -1.33333,23.33333 -10,34.33333 -26,33 -15.33333,-2 -25,-8 -29,-18 m 21,-155 c 3.33333,-22.66667 14,-31.66667 32,-27 14.66667,4 24.66667,14 30,30 m -330,28 c 15.33333,-2 26.33333,7.66667 33,29 6,28.66667 1.66667,45.66667 -13,51 -16.66667,-2 -27.66667,-14.66667 -33,-38 -2.66667,-21.33333 1.66667,-35.33333 13,-42 m 20,80 c -16.66667,-2 -27.66667,-14.66667 -33,-38 -2.66667,-21.33333 1.66667,-35.33333 13,-42 m 3,7 c 9.33333,0.66667 16.66667,7.33333 22,20 6,21.33333 5.33333,37.33333 -2,48 -14,1.33333 -24.33333,-8.33333 -31,-29 -3.33333,-24 0.33333,-37 11,-39 m 2,16 c 6.66667,-1.33333 11.66667,3 15,13 2,14 -5.07711,22.0396 -14.04912,18.2787 C 137.97888,322.51779 135.33333,301 146,295 m 5.88521,29 c -8.15248,1.73577 -9.61316,-20.92036 -5.32781,-23.69674 9.1639,-0.92633 13.48029,21.96097 5.32781,23.69674 z M 153,265 c 22.66667,8 33.66667,27.33333 33,58 0,12.66667 -5.66667,23.33333 -17,32 m 22,-101 c 24.66667,17.33333 33.33333,45.66667 26,85 m 9,-93 c 23.33333,16 32.33333,42.66667 27,80 m 8,-86 c 19.33333,18 27.33333,42.66667 24,74 m 12,-74 c 11.33333,13.33333 16.66667,33 16,59 m 11,-56 c 8.66667,8 11.66667,20.66667 9,38 m 23,-11 c -7.33333,10.66667 -8.66667,19 -4,25 0,12 -1.66667,21.66667 -5,29 m 5,-17 c 2.66667,16.66667 -2.45712,23.14874 -5.12379,30.48207 -8.66667,12 -6.18023,41.03367 1.1531,73.70034 M 432,294 c 0.66667,10 3.66667,13.66667 9,11 12.66667,0 14.33333,2.33333 5,7 8,8 16.66667,15.33333 26,22 2.66667,-9.33333 -0.66667,-16.66667 -10,-22 m -141,14 c -2.66667,40.66667 -6.33333,74 -11,100 -13.33333,36.66667 -15.33333,54.33333 -6,53 7.21302,-1.03256 14,-20 12,-36 -0.66667,-20.66667 1.66667,-43 7,-67 m -9,52 c -17.33333,36 -19,53.66667 -5,53 6,-2.66667 8,-13.33333 6,-32 m 16,-86 c -9.2233,31.57497 1.87038,47.55246 8,69 m 38,-117 -5,2 m 113,-51 c 13.33333,-2.66667 21,9.66667 23,37 m -23,-45 c 10.66667,-4.66667 18.33333,1 23,17 m -25,-21 c 7.33333,-7.33333 16.66667,-5.66667 28,5 m -19,-17 c 7.33333,-3.33333 16,0.66667 26,12 m -70,80 c 12.66667,2 18.66667,13.66667 18,35 m -9,1 c 4.66667,10.66667 4.33333,19.66667 -1,27 m -92,-30 c -4.66667,10.66667 -4.33333,23 1,37 m 8,-24 c -6,8.66667 -5.66667,17.66667 1,27 M 330,290 c 0,8.66667 -1,16.66667 -3,24 -3.33333,15.33333 -1,20 7,14 m -3,-7 c -3.33333,7.33333 -2,8.33333 4,3 m -3,4 c 4.66667,-6.66667 6.66667,-15.66667 6,-27 m -3,24 c 3.33333,-9.33333 5.66667,-21.33333 7,-36 0.66667,-6.66667 2.66667,-13.66667 6,-21 M 544,140 c 4.66667,8 12.66667,12.66667 24,14 8.66667,11.33333 16,17.66667 22,19 12.66667,6 23,7.66667 31,5 m 7,5 c -15.33333,10.66667 -18.33333,25.33333 -9,44 -15.33333,30.66667 -4.66667,47.33333 32,50 M 627,149 c -5.33333,22 3.33333,36.33333 26,43 0,8.66667 4.33333,14.66667 13,18 m 3,124 c -37.33333,12.66667 -57,29.66667 -59,51 -7.33333,-2 -15.33333,-1 -24,3 -8.66667,6.66667 -14.33333,12 -17,16 m 90,38 c -18,-7.33333 -27.66667,-1.33333 -29,18 -34,-5.33333 -53,1.66667 -57,21 M 132,113 c 23.33333,2.66667 39.79046,-3.42564 39.12379,-12.75897 C 173.12379,85.574367 175,83.666667 187,89 c 9.33333,10 21.33333,9.666667 36,-1 M 87,404 c 9.333333,0 14.66667,3 16,9 19.33333,-2 28.33333,8.33333 27,31 12,5.33333 17.33333,13.66667 16,25 m 69,-60 c -0.66667,4 -11.03634,11.26848 -2.76041,13.96874 C 232.73379,420.15106 254.33333,429.33333 251,442 m 299,-66 c 4.66667,-2.66667 6.66667,-0.33333 6,7 -3.33333,9.33333 -1.66667,13.66667 5,13 m 12,-72 c -5.33333,5.33333 -7.66667,12.33333 -7,21 -2,6 -5,11 -9,15 m -259,40 c 5.33333,-2.66667 8,-5.66667 8,-9 1.33333,-5.33333 3.33333,-8.66667 6,-10 m 124,47 c -19.33333,-5.33333 -36.33333,0 -51,16 m 11,-22 c 18.66667,4 34.66667,0.33333 48,-11 M 305,347 c 3.33333,-13.33333 11,-29.66667 23,-49 m -26,38 c 3.33333,-9.33333 8.66667,-18.33333 16,-27 m 108,-33 c 6.66667,-16 19.33333,-21.33333 38,-16 m 49,-54 c 1.33333,8.66667 -2.33333,14.66667 -11,18 m 74.75897,113.05862 c 9.33333,-14 4.84689,-18.54288 -4,-23.87621 10,4.66667 17.69597,-13.85563 17.69597,-13.85563 0,0 2.42127,18.03586 14.42127,16.70253 -10,5.33333 -8.63518,9.8469 -0.63518,19.8469 C 591.57436,321.20954 583.33333,326.33333 574,341 M 545,178 c 6.66667,7.33333 7.33333,13.66667 2,19 8.66667,-4 14.66667,-3.66667 18,1 -1.33333,-8 2.66667,-13.66667 12,-17 -11.33333,0 -16.33333,-3.66667 -15.5,-11.5 -1.83333,7.5 -7.16667,10.5 -16.5,8.5 z M 236,100 c -4.66667,8 -3.33333,12 4,12 -5.33333,4 -5.66667,10.66667 -1,20 -5.33333,-10.66667 -11.33333,-14.33333 -18,-11 2,-4 1.33333,-7.66667 -2,-11 6.66667,1.33333 10.33333,-0.66667 11,-6 m 405,188 c -10.77216,2 -8.71461,12.66667 -3,32 m -439,62 c -6,4.66667 -12.03586,10.18023 3.96414,22.8469 C 177.63081,400.8469 177.33333,404 174,412 c 4.66667,-14.66667 2,-20 -8,-16 9.33333,-8 12,-15.81759 9.5,-20.81759 3.66369,9.93572 6.38484,13.17639 17.5,10.81759 z m -30,59 c 8,-11.33333 19.33333,-5.33333 34,18 m 24,-11 c -5.33333,8 1.33333,15 20,21 m 36,-19 c 1.68323,10.42605 -0.22407,24.61755 9.32781,18.32781 M 578,276 c 1.33333,7.33333 4.66667,8.66667 10,4 7.33333,-3.33333 10.33333,-2 9,4 M 156,217 c 8.66667,-0.66667 11,4 7,14 -6,5.33333 -12,5.33333 -18,0 -2.66667,-12 1,-20 11,-24 m 80.94138,-39.54069 c 0.66667,4.66667 -2.66667,6 -10,4 -2.66667,-4.66667 0.66667,-8 10,-10 m 31.74241,35.79844 c 1.91281,-16.20751 -5.88438,-15.84421 -6.63906,-5.34437 -0.75469,10.49983 4.04911,5.04911 4.70474,-3.5574 M 296,155 c -1.61203,-8.01104 4.38765,-7.98986 5,-1 0.89104,4.76028 -1.94537,7.50276 -3.60651,4.04912 M 339,133 c 6.66667,-2.66667 10.09266,-9.92084 7,-13 -3.09266,-3.07916 -11.33333,5 -8,13 m 12,-6 c 3.33333,-3.33333 7.66667,-5 13,-5 m 74.67219,25 c 13.74337,11.91281 -5.69979,6.15839 -12.34438,11.4426 M 499,214 c -2.66667,-9.33333 0.66667,-10.66667 10,-4 M 337,238 246,101 m 80,104 -33,-85 m 45,97 -38,-111 M 260.37949,180.95604 197,118 M 336,229 270,122 m 47,100 -41,-49 m 37,48 -82,-92 m 80,96 -39,-34 m 32,34 -35,-25 m 35,30 -180,-94 m 166,83 -129,-67 m 180,76 0,-26 m 4,16 10,-107 m -1,81 8,-78 m -2,49 13,-43 m -7,56 24,-60 m -34,102 22,-41 m 10,-13 34,-40 m -32,3 14,-14 m -68,61 -7,-57 m 27,118 81,-111 m -48,78 90,-81 M 361,235 496,126 m -77,71 106,-75 m -273,1 -11,-15 m -19,26 -13,-14 m -6,14 -16,-15 m 8,24 -28,-24 m 47,30 -21,-19 m 54,66 -59,-50 m -2,16 -51,-31 m 47,10 -15,-11 m 97,-29 -10,-16 m 21,19 -5,-8 m -76,64 -37,-25 m 275,124 c -1.33333,-8.66667 1.33333,-14 8,-16 6.66667,-1.33333 10.66667,2 12,10 m -282,18 27,-8 m -8,38 24,-8 m 2,-20 27,-8 m -5,-11 27,-8 m -10,34 25,-8 m -3,-17 23,-5 m -14,30 23,-7 m -7,-32 22,4 m -8,37 32,-27 m -26,34 23,-23 m -148,63 113,-41 m -87,19 29,-7 m -56,40 72,-26 m -42,10 19,-6 m 45,-15 18,-8 M 219,235 117,257 M 276,225 118,197 m 87,32 -89,-14 m 130,168 -81,53 m 364,-254 31,-20 m -17,56 54,-19 m -35,97 49,3 m -68,64 41,14 m -61,6 35,19 m -38,0 20,12 m -62,24 9,11 M 230,346 124,384 m 157,43 -25,45 m 84,-307 3,3 m -1,-8 3,3 m 45,230 c -1.33333,-18 4,-28 16,-30 11.33333,-4.66667 21.66667,-3.33333 31,4 m -35,35 c -2,-10.66667 -0.33333,-20.66667 5,-30 m 22,20 c 6.66667,-12 7,-22.66667 1,-32 m -10,4 -2,14 m 7,-13 -2,18 m -8,-13 16,-3 m -10,6 10,-1 m -20,33 11,-1 m -2,-59 -30,11 m 34,-9 -32,10 m 1,-5 23,4 m -4,26 3,3 m -19,-9 3,3 m -5,21 3,3 m 1,46 10,-2 m 15,-2 12,-5 m -37,13 3,3 m 0,0 3,3 m 3,-3 3,3 m 2,-5 3,3 m 1,-6 3,3 m 4,-5 3,3 m 1,-3 3,3 m 2,-4 3,3 m 1,-5 3,3 m 16,-176 17,-9 m -13,15 16,-10 m 4,11 6,-7 m -13,15 20,-7 m -29,9 -3,8 m 16,5 -1,10 m 6,-15 4,13 m -9,-5 16,-7 m 1,16 10,-2 m 17,-68 10,-5 m -5,12 12,-4 m -45,-56 6,-3 m 3,4 9,-2 m -42,2 7,-14 m -1,13 7,-15 m -9,3 13,-4 m -12,8 15,-4 m -18,-20 3,6 m -59,74 -10,3 m 15,-14 -11,-3 m 23,-5 2,-11 m 24,18 11,-8 m -3,19 13,2 m 42,-85 15,-11 m -10,16 17,-11 m -14,15 21,-12 m -18,18 25,-13 m -14,45 38,-15 m -36,21 14,-6 m -12,21 50,-16 m -46,24 52,-13 m -49,29 31,-8 m -30,20 46,-13 m -41,19 44,-9 m -43,15 23,-6 m -22,10 42,-10 m -42,13 42,-11 m -42,13 43,-8 m -43,11 44,-4 m -44,7 48,0 m -42,3 40,2 m -47,10 22,0 m -24,6 18,-2 m -23,12 13,-2 m -14,6 21,-2 m -22,7 19,-1 m -20,13 39,2 m -38,2 48,6 m -49,0 51,8 m -55,0 49,13 m -45,-9 30,9 m -53,26 20,10 m -36,5 9,7 m -20,3 13,10 m -62,19 1,11 m 18,-18 7,9 m -200,-29 -28,48 m 22,-53 -33,42 m 27,-50 -41,49 m 34,-53 -47,50 m 44,-57 -50,50 m 46,-55 -48,44 m 45,-47 -58,47 m 54,-62 -38,21 m 37,-27 -40,17 m 29,-30 -45,19 m 44,-25 -97,38 m 58,-55 19,-6 m -24,20 17,-8 m 55,-19 40,-16 m 23,-25 19,-16 m -23,30 19,-17 m -23,8 24,-17 m -15,0 12,-8 m -27,-2 21,-6 m -4,6 18,-7 m 12,-3 11,-11 m -11,13 19,-4 m -18,9 17,8 m -21,-1 15,9 m -11,0 23,21 m -4,-32 10,-5 m -5,5 6,-2 m 22,3 -6,11 m 7,-17 -9,7 m 14,-27 -9,0 m 14,-10 -3,-7 m 8,2 -2,-8 m 17,9 4,-9 m 6,8 5,-6 m -3,11 10,-10 m 0,17 10,-4 m -10,6 13,-2 m -12,4 16,0 m 2,-9 6,10 m -72,-56 26,-5 m -29,13 35,-6 m -18,-9 11,11 m 4,-5 8,11 m 10,5 3,3 m -1,1 3,3 m -165,117 3,3 m -1,-5 3,3 m 2,-7 3,3 m 1,-4 3,3 m -89,-76 3,3 m 0,-6 3,3 m 2,-5 3,3 m 7,-4 3,3 m 8,-3 2,-2 m 3,0 3,3 m 0,-4 3,3 m 0,1 3,3 m -1,-6 3,3 m 4,-1 3,3 m 16,-5 3,3 m -63,-11 -3,5 m 3,0 3,3 m 48,102 -8,11 m 6,-1 7,-2 -1,9 m -8,-16 3,3 m -6,0 3,3 m 1,-4 3,3 m -22,-6 -9,9 m 6,0 -3,5 m 3,0 3,3 m -5,1 3,3 m -1,-3 3,3 m -3,1 3,3 m 0,4 3,3 m 5,-11 5,11 m 3,19 6,14 m -15,-19 0,12 m 5,2 3,3 m -4,5 3,3 m 6,0 3,3 m 2,-2 3,3 m 3,0 3,3 m -8,-39 3,3 m -3,2 3,3 m -1,0 3,3 m 0,-9 3,3 m 0,4 3,3 m -7,-8 17,2 m 151,42 6,-9 m 10,-12 3,3 m -1,-6 3,3 m -2,0 3,3 m 0,1 3,3 m 30,-67 19,-9 m -17,14 12,-9 m -10,13 15,-10 m -14,14 13,-11 m -15,-10 4,16 m 3,-16 0,19 m 2,6 3,3 m -4,1 3,3 m 4,-42 0,-13 m 10,-29 -3,22 m -10,-21 11,-4 m -10,13 3,3 m -3,0 3,3 m -4,0 3,3 m -42,28 -6,3 m 1,16 c 12.81085,-7.04642 5.96549,-11.09891 10,-17 m 6,-1 3,3 m -3,0 3,3 m -3,-13 3,3 m -3,17 3,3 m 7,13 3,3 m 1,-2 3,3 m -5,-6 3,3 m 0,7 3,3 m -4,-11 3,3 m 0,-1 3,3 m -15,2 3,3 m -9,-8 3,3 m -4,4 3,3 m -2,-17 3,3 m 23,-126 3,3 m -3,-8 3,3 m -16,-27 3,3 m -48,142 3,3 m 2,0 3,3 m 39,40 3,3 m -7,1 3,3 m -4,2 3,3 m -7,-7 3,3 m -4,-1 3,3 m -35,-44 0,8 m -137,-176 3,3 m 16,3 3,3 m 0,-3 3,3 m 33,-33 3,3 m 0,-6 3,3 m 11,-24 3,3 m 0,-3 3,3 m -3,1 3,3 m -12,-3 3,3 m -231,42 -46,-12 m 60,58 -72,-10 m 46,15 -35,-3 m 35,144 -31,13 m 18,4 -9,4 m 21,3 -10,7 m 10,0 -3,8 m -12,-60 -52,21 m 37,-28 -31,12 m 87,-37 3,3 m -7,-2 -70,23 m 5,-10 -29,13 m 29,-20 -16,6 m 15,-14 -24,7 m 19,-16 -11,3 m 8,-18 -14,2 m 17,-26 -10,1 m 13,-12 -9,2 m 49,-17 -39,7 m 293,31 3,3 m -2,-2 3,3 m -29,63 35,-10 m -33,1 6,-3 m -4,4 24,-9 m -25,11 24,-9 m -20,10 29,-11 m -36,18 37,-12 m 1,1 -39,12 m 0,3 39,-13 m 3,2 -14,3 m 5,1 8,-2 m 3,1 -9,2 m -35,9 9,-5 m -9,6 8,-4 m -7,5 10,-9 m -11,12 4,-5 m -6,9 6,-8 m -7,16 5,-6 m -5,10 3,-4 m -2,7 2,-4 m -2,-5 5,-10 m -1,-18 21,4 m -22,0 12,2 m 3,-14 27,10 m -18,-13 14,5 m -4,-6 6,7 m -19,-7 16,2 m -67,-64 -6,10 m 4,-2 -7,14 m 14,24 -2,16 m 10,-12 4,13 m 4,-14 2,2 m 3,-4 0,3 m 6,-1 3,2 m 5,-1 1,1 m 3,-1 1,2 m 7,-5 0,3 m 3,-5 -1,2 m 2,-4 1,2 m 1,-5 2,3 m 0,-5 2,1 m -1,-6 2,1 m 4,-11 3,-1 m -3,-5 2,-1 m -2,-6 1,1 m 0,-3 3,2 m -63,39 0,13 m 5,-10 -9,12 m 14,-30 -5,3 6,3 m -19,2 -2,15 m 72,-63 0,-4 m 3,3 -1,-6 m 3,3 1,-3 m 3,-2 1,3 m 9,-5 1,3 m 2,-5 2,7 m 1,-6 2,3 m 2,-4 2,3 m 0,-4 4,2 m -46,14 4,-7 m -14,6 2,0 m 0,1 3,0 m 27,-27 0,-4 m -2,7 -4,-5 m 8,1 1,-3 m 1,4 3,-2 m -2,3 3,-2 m -1,5 -2,-2 m -1,-1 -5,0 m -2,0 0,5 m 0,-2 -4,-1 m 3,4 -4,2 m 2,-1 8,8 m 51,-27 3,1 m 2,-3 3,3 m 2,-4 7,9 m -5,-8 4,2 m -65,-20 2,-4 m -25,6 -2,-3 m 15,2 1,-4 m -26,32 -4,2 m 9,-67 18,-3 m -21,6 15,-3 m -3,-9 8,7 m -12,-7 6,6 m -8,-3 4,5 m 28,0 10,12 m -51,-2 6,-1 m -7,4 3,-1 m -2,3 3,3 m -6,-1 3,3 m 0,-3 3,3 m -6,0 3,3 m -4,1 3,3 m -5,7 3,3 m -7,3 3,3 m 51,-37 3,3 m -1,1 3,3 m -213,147 -2,16 m 7,-11 -4,15 m 0,-14 -1,9 m 6,1 1,10 m 1,-3 0,6 m -4,-17 0,9 m 91,-119 3,-10 m 6,11 3,-10 m 8,11 4,-2 m -4,8 7,-1 m -7,3 2,0 m 95,196 1,5 m 4,-8 1,4 m 3,-7 2,3 m 18,-12 5,3 m 6,-13 4,2 m 17,-22 3,3 m -6,1 5,2 m -14,7 7,5 m -116,37 0,7 m 5,-7 0,6 m 5,-4 1,3 m -82,-38 -2,10 m -19,-18 -6,9 m 1,-16 -3,13 m 13,41 3,-24 m -12,1 -15,35 M 200,139 181,124 m 28,10 -22,-21 m -2,38 -20,-14 m 42,2 -36,-28 m 51,13 3,4 m 19,2 -7,-10 m 11,9 -9,-14 m 18,-3 -10,-17 m 285,355 c 10,-8.66667 4.69371,-19.60142 -2,-21 -7.55435,-1.5784 -15.6341,17.20509 -5.74431,29.48207 9.88978,12.27697 20.18241,4.07983 26.18241,-27.92017 0,0 3.15018,-11.9258 -2.4381,-10.5619 -5.58828,1.3639 -2,25 -2,25 l 2,16 c 0,0 1.34354,-15.57269 5,-17 8.67666,-1.53922 4.65487,7.59096 10.24103,7.4381 5.58617,-0.15285 7.19707,-10.98534 7.19707,-10.98534 0,0 1.94064,1.04886 3,0.39414 1.05937,-0.65473 0.81759,-2.42345 0.81759,-2.42345 3.12146,3.76385 2.75259,7.74431 6.10259,6.56189 3.34999,-1.18241 7.65963,-4.81626 8.48862,-12 5.50857,1.35915 1.39292,6.45207 6.67913,7.77363 3.32347,-0.74839 5.89726,-4.83849 11.19707,-15.43811 4.27387,5.92729 6.04004,6.40915 2.98535,10.48207 -3.05469,4.07292 -5.19707,-0.37948 -5.19707,-0.37948 m -17.1319,-10.48207 3.22638,1.37948 m 16.86155,-25.78828 c 8.16776,-8.37729 25.44247,-12.95384 32.51138,-6.4381 -14.59121,2.51138 -19.41136,23.0336 -18.37948,33.43811 1.03188,10.40451 9.88632,4.10434 13,1"
     id="path3055"
     style="fill:none;stroke:#000000;stroke-width:1" />
</svg>
