<?xml version="1.0" encoding="UTF-8" standalone="no"?>
<!-- Created with Inkscape (http://www.inkscape.org/) -->

<svg
   xmlns:dc="http://purl.org/dc/elements/1.1/"
   xmlns:cc="http://creativecommons.org/ns#"
   xmlns:rdf="http://www.w3.org/1999/02/22-rdf-syntax-ns#"
   xmlns:svg="http://www.w3.org/2000/svg"
   xmlns="http://www.w3.org/2000/svg"
   xmlns:sodipodi="http://sodipodi.sourceforge.net/DTD/sodipodi-0.dtd"
   xmlns:inkscape="http://www.inkscape.org/namespaces/inkscape"
   width="744.09448819"
   height="1052.3622047"
   id="svg3992"
   version="1.1"
   inkscape:version="0.48.4 r9939">
  <defs
     id="defs3994" />
  <sodipodi:namedview
     id="base"
     pagecolor="#ffffff"
     bordercolor="#666666"
     borderopacity="1.0"
     inkscape:pageopacity="0.0"
     inkscape:pageshadow="2"
     inkscape:zoom="0.35"
     inkscape:cx="375"
     inkscape:cy="520"
     inkscape:document-units="px"
     inkscape:current-layer="layer1"
     showgrid="false"
     inkscape:window-width="561"
     inkscape:window-height="466"
     inkscape:window-x="35"
     inkscape:window-y="35"
     inkscape:window-maximized="0" />
  <metadata
     id="metadata3997">
    <rdf:RDF>
      <cc:Work
         rdf:about="">
        <dc:format>image/svg+xml</dc:format>
        <dc:type
           rdf:resource="http://purl.org/dc/dcmitype/StillImage" />
        <dc:title></dc:title>
      </cc:Work>
    </rdf:RDF>
  </metadata>
  <g
     inkscape:label="Layer 1"
     inkscape:groupmode="layer"
     id="layer1">
    <path
       style="fill:none;stroke:#000000"
       d="m 414.75783,577.04957 c -15.31625,-0.53608 -27.09534,-1.83498 -33.1459,-3.65506 -7.16074,-2.15405 -8.3978,-7.87891 -6.33413,-29.31321 0.34045,-3.53616 0.619,-8.78749 0.619,-11.66963 0,-9.59583 1.12149,-15.34948 3.33059,-17.08716 2.77728,-2.18461 7.29,-0.3972 14.52088,5.75146 l 3.38653,2.87968 4.67425,0 c 2.57084,0 9.03836,-0.20516 14.37228,-0.45592 6.92524,-0.32556 12.02781,-0.32063 17.84657,0.0173 4.4817,0.26025 10.96597,0.57836 14.40949,0.70692 l 6.26094,0.23372 3.39663,-2.58066 c 4.46596,-3.39312 7.58735,-4.93679 10.46497,-5.17543 4.05915,-0.33662 5.41919,1.38266 6.19202,7.82751 0.23272,1.94072 0.47918,12.07801 0.54769,22.5273 0.11278,17.19932 0.052,19.23357 -0.64216,21.47823 -0.98389,3.18173 -2.8416,5.05994 -5.984,6.05006 -7.85568,2.47517 -27.70057,3.38244 -53.91565,2.46491 z"
       id="path3732"
       inkscape:connector-curvature="0" />
    <path
       style="fill:none;stroke:#000000;stroke-width:1.20357299"
       d="m 420.52956,557.78416 c 3.31725,-0.86768 9.76694,-0.2759 11.04299,1.01325 0.97684,0.98684 0.98885,1.24075 0.13181,2.78343 -1.15133,2.0723 -4.66689,4.55455 -6.44595,4.55135 -2.86926,-0.56535 -6.83232,-2.8227 -7.55301,-4.99985 -0.41585,-1.25625 0.24785,-2.48581 2.82416,-3.34818 z"
       id="path3712"
       inkscape:connector-curvature="0"
       sodipodi:nodetypes="ccccsc" />
    <path
       style="fill:none;stroke:#000000;stroke-width:1"
       d="m 442.37831,554.40893 c -5.55086,-0.55777 -7.94103,-1.79377 -7.94103,-4.10644 0,-0.68163 0.26152,-2.0049 2.96971,-3.28942 2.70818,-1.28452 4.52983,-1.0487 10.14597,-1.0487 7.83286,0 9.68195,0.49468 11.57635,3.09697 0.84954,1.16701 0.87068,1.37579 0.25152,2.48363 -1.27612,2.28332 -3.25437,3.00455 -8.56381,3.12219 -2.64469,0.0586 -6.44211,-0.0576 -8.43871,-0.25823 z"
       id="path3700"
       inkscape:connector-curvature="0"
       sodipodi:nodetypes="cscssssc" />
    <path
       style="fill:none;stroke:#000000;stroke-width:1"
       d="m 397.1052,554.30888 c -3.83048,-0.46522 -6.14204,-1.55405 -6.90842,-3.25411 -0.83304,-1.84795 0.0234,-3.64756 2.31244,-4.85897 1.75935,-0.93109 2.75786,-1.03367 9.8085,-1.00769 4.95002,0.0182 8.70838,0.27191 10.17417,0.68671 2.43017,0.6877 4.74668,2.85113 4.74668,4.43297 0,1.15008 -1.79842,2.74208 -3.91752,3.46788 -2.14653,0.73519 -11.90959,1.05622 -16.21585,0.53321 z"
       id="path3694"
       inkscape:connector-curvature="0" />
    <path
       style="fill:none;stroke:#000000"
       d="m 332.84079,587.63365 c 8.57825,-2.39695 14.50038,-8.2144 17.45125,-17.14279 3.00217,-9.08362 4.58598,-31.60032 3.24638,-46.153 -0.92215,-10.01774 -4.4829,-31.68851 -6.43335,-39.15346 -1.87242,-7.16633 -3.38014,-9.74735 -5.14287,-8.80395 -1.44446,0.77304 -4.21461,6.9928 -7.00021,15.71736 -1.45327,4.55166 -2.92171,8.59139 -3.2632,8.97718 -0.42591,0.48115 -1.734,0.79638 -4.16529,1.00377 -5.92851,0.50569 -16.08992,2.35967 -23.97019,4.37343 -4.10966,1.0502 -7.64981,1.90947 -7.86699,1.90947 -0.21718,0 -2.19598,-2.08878 -4.39734,-4.64174 -9.01625,-10.4563 -13.79874,-14.68828 -15.24373,-13.48904 -1.70898,1.41832 -1.8607,7.44044 -0.41327,16.40362 1.2854,7.95986 9.22613,36.25163 13.4295,47.84757 2.1986,6.06533 6.99335,15.95069 9.98737,20.59102 2.60083,4.03092 7.44877,8.75726 10.76832,10.49821 4.70211,2.46604 8.13092,3.14206 14.80963,2.91986 3.31008,-0.11012 6.85544,-0.48069 8.20399,-0.85751 z"
       id="path3636"
       inkscape:connector-curvature="0" />
    <path
       style="fill:none;stroke:#000000;stroke-width:1"
       d="m 328.93506,577.92829 c 2.17534,-0.94947 4.89927,-4.00877 5.51452,-6.19347 0.33639,-1.19453 0.26086,-1.74562 -0.37177,-2.71273 -1.59877,-2.44405 -9.51536,-1.83103 -14.97731,1.15977 -2.20241,1.20597 -2.69273,2.3318 -1.83722,4.21854 1.63082,3.59663 7.47035,5.36168 11.67178,3.52789 z"
       id="path3632"
       inkscape:connector-curvature="0" />
    <path
       style="fill:none;stroke:#000000"
       d="m 299.3738,556.37793 c -7.46016,-2.57972 -10.25334,-10.43553 -5.55821,-15.63247 1.83482,-2.03093 3.8878,-2.78102 6.70003,-2.44795 5.22678,0.61903 11.39788,5.55434 11.52157,10.04248 0.12369,4.48814 -1.03148,4.85756 -2.12331,5.92766 -2.96515,2.90616 -6.30485,3.57482 -10.54008,2.11028 z"
       id="path3630"
       inkscape:connector-curvature="0"
       sodipodi:nodetypes="ssscss" />
    <path
       style="fill:none;stroke:#000000"
       d="m 332.70426,550.48321 c -3.24533,-1.15744 -4.61529,-3.24324 -4.60893,-7.01724 0.007,-4.34832 2.9958,-9.17751 7.20641,-11.64509 1.63323,-0.95713 2.26595,-1.08075 4.72922,-0.9239 2.72363,0.17343 2.92201,0.26392 4.69693,2.14248 1.81147,1.91725 2.78646,4.1753 2.79133,6.46468 0.006,2.64221 -2.534,7.09254 -5.13435,8.79737 -2.60035,1.70483 -6.80078,3.20877 -9.68061,2.1817 z"
       id="path3624"
       inkscape:connector-curvature="0"
       sodipodi:nodetypes="scsssccs" />
    <path
       style="fill:none;stroke:#000000;stroke-width:1.24301827"
       d="m 340.09835,546.14295 c 0.72457,-0.72457 1.3174,-1.81144 1.3174,-2.41525 0,-1.50894 -1.86628,-3.24472 -3.48869,-3.24472 -0.73799,0 -1.82485,0.48305 -2.41525,1.07344 -0.59039,0.5904 -1.07344,1.67726 -1.07344,2.41525 0,1.6224 1.73578,3.48869 3.24472,3.48869 0.60382,0 1.69068,-0.59283 2.41526,-1.31741 z"
       id="path3620"
       inkscape:connector-curvature="0" />
    <path
       style="fill:none;stroke:#000000;stroke-width:1"
       d="m 381.73778,569.86624 c -0.57141,-0.99857 -1.06902,-0.16165 -0.26753,-1.69982 -0.0856,-1.43644 20.88427,-2.46351 22.13641,-2.12461 0.73429,0.19871 1.03211,0.56841 1.01354,1.25811 -0.0242,0.89851 -0.26621,1.00904 -3.02233,1.3806 -1.64782,0.22211 -15.10121,0.99408 -19.86004,1.18571 z"
       id="path3728-1"
       inkscape:connector-curvature="0"
       sodipodi:nodetypes="cccccc" />
    <path
       style="fill:none;stroke:#000000;stroke-width:1"
       d="m 380.60096,564.72097 c -0.50213,-1.03514 -1.05554,-0.23402 -0.15123,-1.71408 0.0124,-1.43894 21.00351,-1.03655 22.22968,-0.61322 0.71906,0.24822 0.99103,0.63733 0.92557,1.32416 -0.0853,0.89478 -0.33426,0.98859 -3.10928,1.17172 -1.65911,0.10946 -15.13385,-0.0359 -19.89469,-0.16859 z"
       id="path3728-1-7"
       inkscape:connector-curvature="0"
       sodipodi:nodetypes="cccccc" />
    <path
       style="fill:none;stroke:#000000;stroke-width:1"
       d="m 380.79323,558.89331 c -0.36896,-1.08974 -1.01806,-0.36398 0.064,-1.71956 0.1919,-1.42613 20.96858,1.59383 22.13231,2.16693 0.68244,0.33605 0.90371,0.75607 0.753,1.42936 -0.19633,0.87713 -0.45507,0.93912 -3.23123,0.77436 -1.6598,-0.0985 -15.01096,-1.92508 -19.71798,-2.65109 z"
       id="path3728-1-4"
       inkscape:connector-curvature="0"
       sodipodi:nodetypes="cccccc" />
    <path
       style="fill:none;stroke:#000000;stroke-width:1.24301827"
       d="m 305.17087,551.55381 c 0.72457,-0.72457 1.3174,-1.81144 1.3174,-2.41525 0,-1.50894 -1.86628,-3.24472 -3.48869,-3.24472 -0.73799,0 -1.82485,0.48305 -2.41525,1.07344 -0.59039,0.5904 -1.07344,1.67726 -1.07344,2.41525 0,1.6224 1.73578,3.48869 3.24472,3.48869 0.60382,0 1.69068,-0.59283 2.41526,-1.31741 z"
       id="path3620-0"
       inkscape:connector-curvature="0" />
    <path
       style="fill:none;stroke:#000000;stroke-width:1.24301827"
       d="m 400.34946,550.9644 c 0.72457,-0.55767 1.3174,-1.3942 1.3174,-1.85893 0,-1.16138 -1.86628,-2.49734 -3.48869,-2.49734 -0.73799,0 -1.82485,0.37178 -2.41525,0.82619 -0.59039,0.45441 -1.07344,1.29092 -1.07344,1.85893 0,1.2487 1.73578,2.68512 3.24472,2.68512 0.60382,0 1.69068,-0.45628 2.41526,-1.01397 z"
       id="path3620-9"
       inkscape:connector-curvature="0" />
    <path
       style="fill:none;stroke:#000000;stroke-width:1.24301827"
       d="m 445.17088,551.5894 c 0.72457,-0.55767 1.3174,-1.3942 1.3174,-1.85893 0,-1.16138 -1.86628,-2.49734 -3.48869,-2.49734 -0.73799,0 -1.82485,0.37178 -2.41525,0.82619 -0.59039,0.45441 -1.07344,1.29092 -1.07344,1.85893 0,1.2487 1.73578,2.68512 3.24472,2.68512 0.60382,0 1.69068,-0.45628 2.41526,-1.01397 z"
       id="path3620-9-4"
       inkscape:connector-curvature="0" />
    <path
       style="fill:none;stroke:#000000;stroke-width:1"
       d="m 446.38311,569.10559 c -0.4322,-1.06623 -1.03765,-0.30368 -0.0369,-1.72035 0.10798,-1.43493 21.02594,0.36208 22.22126,0.86599 0.70097,0.29547 0.94647,0.7018 0.83549,1.38277 -0.14458,0.88713 -0.39924,0.96417 -3.18029,0.96242 -1.66272,-10e-4 -15.09799,-1.04195 -19.83947,-1.49083 z"
       id="path3728-1-8"
       inkscape:connector-curvature="0"
       sodipodi:nodetypes="cccccc" />
    <path
       style="fill:none;stroke:#000000;stroke-width:1"
       d="m 445.93499,565.61046 c -0.5109,-1.03084 -1.05749,-0.22505 -0.16574,-1.71275 1.2e-4,-1.43898 20.99393,-1.21495 22.22366,-0.80205 0.72114,0.2421 0.99641,0.62888 0.93678,1.31625 -0.0777,0.89548 -0.32585,0.99139 -3.0992,1.1981 -1.65812,0.12363 -15.13362,0.0927 -19.89541,4.4e-4 z"
       id="path3728-1-8-8"
       inkscape:connector-curvature="0"
       sodipodi:nodetypes="cccccc" />
    <path
       style="fill:none;stroke:#000000;stroke-width:1"
       d="m 446.0028,561.94961 c -0.63455,-0.95969 -1.07721,-0.0924 -0.37644,-1.67907 -0.17797,-1.42794 20.68217,-3.80386 21.95354,-3.54633 0.74556,0.15099 1.06658,0.50073 1.09248,1.1902 0.0337,0.89821 -0.20065,1.02409 -2.92709,1.57245 -1.63007,0.32789 -15.0058,1.96495 -19.7424,2.46273 z"
       id="path3728-1-8-8-2"
       inkscape:connector-curvature="0"
       sodipodi:nodetypes="cccccc" />
  </g>
</svg>
