<?xml version="1.0" encoding="UTF-8" standalone="no"?>
<!-- Created with Inkscape (http://www.inkscape.org/) -->

<svg
   xmlns:dc="http://purl.org/dc/elements/1.1/"
   xmlns:cc="http://creativecommons.org/ns#"
   xmlns:rdf="http://www.w3.org/1999/02/22-rdf-syntax-ns#"
   xmlns:svg="http://www.w3.org/2000/svg"
   xmlns="http://www.w3.org/2000/svg"
   version="1.1"
   width="744.09448"
   height="1052.3622"
   id="svg2">
  <defs
     id="defs4" />
  <metadata
     id="metadata7">
    <rdf:RDF>
      <cc:Work
         rdf:about="">
        <dc:format>image/svg+xml</dc:format>
        <dc:type
           rdf:resource="http://purl.org/dc/dcmitype/StillImage" />
        <dc:title></dc:title>
      </cc:Work>
    </rdf:RDF>
  </metadata>
  <g
     id="layer1">
    <g
       id="text3063"
       style="font-size:40px;font-style:normal;font-variant:normal;font-weight:normal;font-stretch:normal;line-height:125%;letter-spacing:0px;word-spacing:0px;fill:#000000;fill-opacity:1;stroke:none;font-family:'Lobster 1.3';-inkscape-font-specification:'Lobster 1.3'">
      <path
         d="m 123.3798,324.58542 c -6.75262,-0.64747 -15.71635,3.67504 -15.56739,11.3083 1.36793,4.29314 5.70945,3.26729 3.74752,-1.36357 0.0733,-5.08319 7.73483,-10.03259 4.52502,-2.65266 -1.60834,7.54252 -3.21667,15.08503 -4.825,22.62755 1.98016,-0.56724 6.0048,1.39076 6.08422,-1.52418 0.95856,-4.50521 1.91711,-9.01042 2.87567,-13.51563 10.01036,-0.42157 -4.70656,15.9336 5.50741,15.68116 5.54504,0.67327 -0.64134,-4.64378 2.59248,-8.05626 3.16773,-4.85926 -0.53773,-10.97903 -5.16437,-9.83891 3.63477,-4.18194 7.26953,-8.36387 10.9043,-12.5458 -4.90829,-1.37906 -6.72888,3.48072 -9.31062,6.75888 -2.5237,3.63433 -4.98455,7.19012 -3.1057,1.17197 0.57882,-2.68361 1.15764,-5.36723 1.73646,-8.05085 z"
         id="path3068" />
      <path
         d="m 136.24244,348.18512 c 1.82637,-3.29135 12.45722,-5.42453 8.40712,-12.42702 -4.9763,-4.44377 -12.14504,0.79031 -12.97743,6.49969 -3.98435,7.0836 3.05181,16.03177 10.32429,10.77492 3.63606,-0.87829 8.15645,-10.75522 2.8809,-4.61384 -2.00031,2.93109 -8.41974,5.44263 -8.63488,-0.23375 z m 6.75991,-9.67988 c 0.67541,4.92907 -9.56873,8.96938 -4.98822,1.79873 0.24974,-2.27456 4.80977,-6.69118 4.98822,-1.79873 z"
         id="path3070" />
      <path
         d="m 158.90108,333.7053 c -4.76804,1.01795 -0.31308,4.2947 0.18245,5.23684 0.009,3.82276 -3.58273,14.8075 -8.06235,10.64296 0.82591,-5.06137 2.07669,-10.04916 3.07996,-15.07981 -1.97961,0.56736 -6.00613,-1.39104 -6.08275,1.52449 -0.8424,5.05676 -2.65639,10.02714 -2.66634,15.16233 2.39036,6.54121 11.95564,2.35209 13.51902,-2.94699 1.45513,-3.95281 5.23196,-12.28592 0.03,-14.53982 z"
         id="path3072" />
      <path
         d="m 164.98184,334.50529 c -0.95032,5.56644 -2.85928,11.04763 -3.02701,16.68682 3.1862,7.47746 11.39127,0.21141 14.38687,-3.84698 -2.67225,0.62339 -9.69204,6.94921 -8.31848,-0.002 0.90618,-4.2792 1.81237,-8.55839 2.71855,-12.83759 -1.91998,0 -3.83995,0 -5.75993,0 z m 0.75999,-5.27993 c 1.31116,8.05499 11.26172,-1.90822 3.15996,-3.19996 -1.71088,-0.0444 -3.20515,1.50187 -3.15996,3.19996 z"
         id="path3074" />
      <path
         d="m 191.0429,340.46522 c 1.26751,-6.17331 -7.25148,-7.07707 -9.67536,-4.18025 1.52128,-3.16617 -3.26763,-1.27047 -5.05856,-1.77968 -1.07123,1.68863 -1.09293,4.67263 -1.76017,6.85987 -0.92856,4.37996 -1.85711,8.75992 -2.78566,13.13988 1.97887,-0.56751 6.00796,1.39143 6.08077,-1.52491 1.02637,-4.8783 2.05275,-9.75659 3.07912,-14.63489 5.54115,-3.23 4.2828,4.09976 3.2743,7.13404 -1.97656,4.23029 -0.13509,10.90382 5.71371,8.69723 3.03007,-0.72804 9.17612,-9.28832 3.19183,-4.09142 -5.30171,3.06392 -3.50879,-3.7417 -2.7188,-6.55074 0.21961,-1.02304 0.43921,-2.04609 0.65882,-3.06913 z"
         id="path3076" />
      <path
         d="m 217.91105,324.58542 c -6.75262,-0.64747 -15.71635,3.67504 -15.56739,11.3083 1.54733,4.41516 5.50842,3.11226 3.7528,-1.42029 -0.16849,-4.77043 8.4657,-10.61901 6.49465,-3.00272 0,7.67811 0,15.35622 0,23.03433 2.07339,-0.53904 5.77622,1.32162 6.33474,-1.44841 2.5017,-6.30377 5.00339,-12.60755 7.50509,-18.91133 0,6.78658 0,13.57316 0,20.35974 2.06222,-0.54334 5.8036,1.33217 6.30471,-1.45996 3.52502,-9.44655 7.05005,-18.89311 10.57507,-28.33966 -3.1029,-1.05237 -3.50467,1.7307 -4.24378,4.03477 -2.43869,6.81497 -4.87738,13.62994 -7.31607,20.44491 0,-8.15989 0,-16.31979 0,-24.47968 -2.02692,0.44207 -5.62259,-1.31269 -5.71214,1.84242 -2.58923,7.54575 -5.17846,15.09151 -7.76769,22.63726 -0.12,-8.19989 -0.23999,-16.39979 -0.35999,-24.59968 z"
         id="path3078" />
      <path
         d="m 251.09924,334.1053 c -7.673,-0.18435 -11.1222,8.36577 -10.50123,14.93196 0.0308,8.95261 13.04165,6.12477 14.03805,-1.02526 -0.8692,-5.69553 5.34285,-5.64788 6.66305,-9.62676 -3.35715,3.19469 -6.19229,1.94719 -6.38492,-2.43497 -0.75067,-1.3413 -2.37707,-1.82046 -3.81495,-1.84497 z m -2.51996,16.75978 c -5.97526,-1.1984 -1.09087,-17.40916 4.20431,-13.20169 -3.48279,3.87714 2.15273,7.29329 -1.90326,11.80437 -0.51717,0.76028 -1.35681,1.35794 -2.30105,1.39732 z"
         id="path3080" />
      <path
         d="m 275.4179,340.46522 c 1.26751,-6.17331 -7.25148,-7.07707 -9.67536,-4.18025 1.52128,-3.16617 -3.26763,-1.27047 -5.05856,-1.77968 -1.07123,1.68863 -1.09293,4.67263 -1.76017,6.85987 -0.92856,4.37996 -1.85711,8.75992 -2.78566,13.13988 1.97887,-0.56751 6.00796,1.39143 6.08077,-1.52491 1.02637,-4.8783 2.05275,-9.75659 3.07912,-14.63489 5.54115,-3.23 4.2828,4.09976 3.2743,7.13404 -1.97656,4.23029 -0.13509,10.90382 5.71371,8.69723 3.03007,-0.72804 9.17612,-9.28832 3.19183,-4.09142 -5.30171,3.06392 -3.50879,-3.7417 -2.7188,-6.55074 0.21961,-1.02304 0.43921,-2.04609 0.65882,-3.06913 z"
         id="path3082" />
      <path
         d="m 290.21421,334.50529 c 0.0373,4.12522 -4.99835,-2.70979 -7.75117,1.10307 -4.98965,3.48634 -6.55503,10.77545 -5.16241,16.40155 0.91458,5.52202 9.08589,0.41941 8.7401,2.03604 -4.24911,0.81361 -10.52772,8.61092 -3.08908,10.39911 5.82918,1.01907 8.21805,-5.0941 8.75036,-9.78859 4.08788,0.86111 8.30944,-8.49854 6.12944,-7.4854 -2.37061,4.22629 -7.32995,6.74168 -4.6469,0.48092 0.92986,-4.38224 1.85973,-8.76447 2.78959,-13.1467 -1.91998,0 -3.83995,0 -5.75993,0 z m -3.15995,2.27997 c 4.01019,0.92508 1.07835,5.15128 0.98145,7.81641 0.005,3.32941 -2.40518,9.02173 -6.17264,5.06718 -0.31248,-4.14087 0.36387,-11.65735 5.19119,-12.88359 z m -5.47993,23.2797 c 2.27858,-5.99785 6.31,-1.75438 1.35998,1.31999 -0.71018,0.0228 -1.34855,-0.59452 -1.35998,-1.31999 z"
         id="path3084" />
    </g>
  </g>
</svg>
