<?xml version="1.0" encoding="UTF-8" standalone="no"?>
<!-- Created with Inkscape (http://www.inkscape.org/) -->

<svg
   xmlns:dc="http://purl.org/dc/elements/1.1/"
   xmlns:cc="http://creativecommons.org/ns#"
   xmlns:rdf="http://www.w3.org/1999/02/22-rdf-syntax-ns#"
   xmlns:svg="http://www.w3.org/2000/svg"
   xmlns="http://www.w3.org/2000/svg"
   version="1.1"
   width="744.09448"
   height="1052.3622"
   id="svg2">
  <defs
     id="defs4" />
  <metadata
     id="metadata7">
    <rdf:RDF>
      <cc:Work
         rdf:about="">
        <dc:format>image/svg+xml</dc:format>
        <dc:type
           rdf:resource="http://purl.org/dc/dcmitype/StillImage" />
        <dc:title></dc:title>
      </cc:Work>
    </rdf:RDF>
  </metadata>
  <g
     id="layer1">
    <g
       id="text3221"
       style="font-size:40px;font-style:normal;font-variant:normal;font-weight:normal;font-stretch:normal;line-height:125%;letter-spacing:0px;word-spacing:0px;fill:#000000;fill-opacity:1;stroke:none;font-family:'Lobster 1.3';-inkscape-font-specification:'Lobster 1.3'">
      <path
         d="m 40.879796,333.87113 c -6.53113,-0.58337 -14.741257,3.22398 -15.639799,10.31986 0.09686,4.82642 6.103988,4.98583 3.819949,-0.37513 -0.100141,-4.76103 7.693424,-10.1669 4.585276,-2.93536 -1.628423,7.63675 -3.256847,15.27349 -4.88527,22.91024 1.855825,-0.53067 5.521168,1.17369 5.988107,-1.07246 0.990592,-4.65578 1.981185,-9.31157 2.971777,-13.96735 9.512929,-0.13924 -3.051316,13.13548 3.848536,15.65058 3.354337,0.11648 5.546296,0.008 3.271373,-3.25074 1.90634,-5.46265 3.941833,-15.84021 -4.200182,-14.59566 3.640032,-4.188 7.280063,-8.37599 10.920095,-12.56399 -4.23373,-1.15185 -6.250735,2.18727 -8.300358,5.41502 -2.033488,2.36366 -6.376535,9.87382 -4.248884,3.13211 0.623127,-2.88904 1.246253,-5.77808 1.86938,-8.66712 z"
         id="path3226" />
      <path
         d="m 51.622467,343.791 c -0.944296,5.56713 -2.868912,11.04656 -3.026994,16.68682 3.186186,7.47745 11.391256,0.2114 14.386848,-3.84699 -2.645587,0.60783 -9.651008,6.94959 -8.328454,0.0449 0.909509,-4.2949 1.819017,-8.5898 2.728526,-12.8847 -1.919975,0 -3.839951,0 -5.759926,0 z m 0.75999,-5.27993 c 1.311143,8.05498 11.261713,-1.90821 3.15996,-3.19996 -1.71089,-0.0444 -3.205147,1.50186 -3.15996,3.19996 z"
         id="path3228" />
      <path
         d="m 77.68352,349.75092 c 1.287058,-6.38065 -7.250256,-6.75026 -9.680588,-4.15673 1.623072,-3.06636 -2.674456,-1.38339 -4.350627,-1.80319 -2.177797,0.13288 -1.330649,3.99923 -2.221369,5.72066 -1.009056,4.75969 -2.018111,9.51939 -3.027166,14.27908 1.854621,-0.53092 5.523831,1.17426 5.985674,-1.07297 1.058069,-5.02894 2.116139,-10.05788 3.174208,-15.08682 5.37629,-3.21906 4.377139,3.85047 3.334011,6.85123 -1.289539,3.70017 -1.486011,9.86708 4.105891,9.30856 3.549295,0.65036 11.281895,-9.96872 4.739938,-4.41994 -5.146432,3.0485 -3.613643,-3.49164 -2.779455,-6.26814 0.239828,-1.11725 0.479655,-2.23449 0.719483,-3.35174 z"
         id="path3230" />
      <path
         d="m 92.479839,343.791 c 0.01807,4.03387 -4.986693,-2.6592 -7.751177,1.10307 -4.970677,3.50118 -6.585954,10.75009 -5.162406,16.40155 0.925362,5.43193 8.959282,0.57774 8.755778,1.96549 -4.756929,0.82915 -10.582137,9.84035 -2.202113,10.5295 5.59367,0.2996 7.222368,-5.58747 7.879899,-9.99987 4.018943,-0.88668 7.27423,-4.17112 6.63991,-8.39989 -1.246192,3.65504 -8.159032,8.88851 -5.325417,2.18712 0.975151,-4.59566 1.950301,-9.19131 2.925452,-13.78697 -1.919975,0 -3.839951,0 -5.759926,0 z m -3.159959,2.27997 c 3.924294,0.83582 1.194697,4.87849 1.061738,7.43948 -0.764143,2.72181 -0.448955,7.5625 -4.740444,6.63659 -3.830799,-2.16068 -0.625752,-13.50176 3.678706,-14.07607 z m -5.479929,23.2797 c 1.091039,-3.94548 6.132542,-4.06149 2.639966,0.42499 -0.558966,1.30735 -2.609791,1.09905 -2.639966,-0.42499 z"
         id="path3232" />
      <path
         d="m 135.47715,347.27095 c -4.02605,3.3 -13.94698,-0.37198 -14.27981,7.19991 2.83756,-3.63944 9.1935,-1.6947 4.94386,2.76813 -4.73858,8.54985 -15.27095,-2.0592 -7.74618,-7.44697 2.88313,-2.22829 6.05244,-2.68178 1.11514,-4.92884 -6.57548,-4.0541 3.81394,-14.29596 5.56713,-6.35211 -2.26334,2.8833 -1.05176,5.94814 2.68496,3.27495 3.48221,-7.82229 -8.84879,-10.3737 -13.29483,-5.73992 -5.26156,3.12988 -0.0708,10.18008 0.77128,11.30295 -7.23398,1.58166 -8.81845,13.16677 -1.70377,15.99857 6.33048,2.56304 13.74431,-1.37073 15.28591,-8.01223 0.0987,-3.96339 7.53802,-3.57813 6.65631,-8.06444 z"
         id="path3234" />
      <path
         d="m 160.2548,333.87113 c -6.53113,-0.58337 -14.74127,3.22398 -15.6398,10.31986 0.097,4.82643 6.10393,4.98581 3.81993,-0.37513 -0.10013,-4.76102 7.69344,-10.16691 4.58529,-2.93536 -1.62842,7.63675 -3.25685,15.27349 -4.88527,22.91024 1.85554,-0.53073 5.5218,1.17383 5.98753,-1.07258 0.99079,-4.66907 1.98157,-9.33815 2.97236,-14.00722 5.41696,-1.84663 4.73241,2.14143 3.57815,5.60208 -0.67273,3.15924 -1.34545,6.31848 -2.01817,9.47772 1.85572,-0.53069 5.52139,1.17374 5.9879,-1.0725 2.04398,-9.6157 4.08796,-19.23141 6.13194,-28.84711 -1.8556,0.53071 -5.52166,-1.1738 -5.98766,1.07255 -0.75075,3.53577 -1.50149,7.07153 -2.25223,10.6073 -3.89841,0.72851 -5.74068,0.61025 -4.03932,-3.45151 0.58645,-2.74278 1.1729,-5.48556 1.75935,-8.22834 z"
         id="path3236" />
      <path
         d="m 172.16934,343.791 c -0.9443,5.56713 -2.86889,11.04656 -3.02701,16.68682 3.18621,7.47744 11.39127,0.21141 14.38687,-3.84699 -2.64559,0.60782 -9.651,6.9496 -8.32846,0.0449 0.90951,-4.2949 1.81902,-8.5898 2.72853,-12.8847 -1.91998,0 -3.83995,0 -5.75993,0 z m 0.75999,-5.27993 c 1.31116,8.05499 11.26172,-1.90823 3.15996,-3.19996 -1.71089,-0.0444 -3.20515,1.50186 -3.15996,3.19996 z"
         id="path3238" />
      <path
         d="m 198.2304,349.75092 c 1.28705,-6.38065 -7.25025,-6.75026 -9.68059,-4.15673 1.62307,-3.06636 -2.67446,-1.38339 -4.35063,-1.80319 -2.17779,0.13289 -1.33064,3.99923 -2.22136,5.72066 -1.00906,4.75969 -2.01811,9.51939 -3.02717,14.27908 1.85462,-0.53092 5.52383,1.17426 5.98568,-1.07297 1.05807,-5.02894 2.11614,-10.05788 3.17421,-15.08682 5.37629,-3.21905 4.37713,3.85047 3.33401,6.85123 -1.28954,3.70016 -1.486,9.86708 4.10589,9.30856 3.5493,0.65036 11.2819,-9.96872 4.73994,-4.41994 -5.14644,3.0485 -3.61364,-3.49164 -2.77946,-6.26815 0.23983,-1.11724 0.47965,-2.23449 0.71948,-3.35173 z"
         id="path3240" />
    </g>
  </g>
</svg>
