<?xml version="1.0" encoding="UTF-8" standalone="no"?>
<!-- Created with Inkscape (http://www.inkscape.org/) -->

<svg
   xmlns:dc="http://purl.org/dc/elements/1.1/"
   xmlns:cc="http://creativecommons.org/ns#"
   xmlns:rdf="http://www.w3.org/1999/02/22-rdf-syntax-ns#"
   xmlns:svg="http://www.w3.org/2000/svg"
   xmlns="http://www.w3.org/2000/svg"
   version="1.1"
   width="744.09448"
   height="1052.3622"
   id="svg2">
  <defs
     id="defs4" />
  <metadata
     id="metadata7">
    <rdf:RDF>
      <cc:Work
         rdf:about="">
        <dc:format>image/svg+xml</dc:format>
        <dc:type
           rdf:resource="http://purl.org/dc/dcmitype/StillImage" />
        <dc:title></dc:title>
      </cc:Work>
    </rdf:RDF>
  </metadata>
  <g
     id="layer1">
    <g
       transform="scale(1.062204,0.94143875)"
       id="text2985"
       style="font-size:42.48815918px;font-style:normal;font-variant:normal;font-weight:normal;font-stretch:normal;text-align:center;line-height:125%;letter-spacing:0px;word-spacing:0px;text-anchor:middle;fill:#000000;fill-opacity:1;stroke:none;font-family:Lucida Sans Unicode;-inkscape-font-specification:Lucida Sans Unicode">
      <g
         transform="matrix(0.94143874,0,0,1.062204,-53.255818,6.9744224)"
         id="text3019"
         style="font-size:40px;fill:#000000;font-family:'Lobster 1.3';-inkscape-font-specification:'Lobster 1.3'">
        <path
           d="m 99.425773,223.85124 c -1.81331,8.47989 -3.62662,16.95978 -5.43993,25.43967 1.828848,-0.58318 5.627946,1.27021 5.998801,-1.11605 0.856236,-3.35883 1.280176,-7.25229 2.401086,-10.2838 7.69931,0.66967 14.97621,-8.98485 9.83502,-15.61843 -5.80342,-5.70333 -16.214183,-2.60216 -20.514462,3.55763 -5.172732,3.3722 4.058258,11.97001 2.479552,5.02089 -0.746372,-6.91644 7.59679,-11.9607 13.47982,-8.79081 4.15856,4.45143 0.68525,13.2751 -5.15993,14.35073 0.94666,-4.45327 1.89331,-8.90655 2.83997,-13.35982 -1.97331,0.26666 -3.94662,0.53333 -5.919927,0.79999 z"
           id="path3024" />
        <path
           d="m 115.67648,229.29117 c -0.94941,5.56657 -2.8608,11.04742 -3.02701,16.68681 3.1862,7.47746 11.39127,0.21142 14.38687,-3.84698 -2.66209,0.61763 -9.6766,6.94933 -8.32226,0.0156 0.90745,-4.28515 1.81489,-8.57029 2.72233,-12.85544 -1.91998,0 -3.83995,0 -5.75993,0 z m 0.75999,-5.27994 c 1.31115,8.05499 11.26172,-1.90821 3.15996,-3.19995 -1.71089,-0.0444 -3.20514,1.50185 -3.15996,3.19995 z"
           id="path3026" />
        <path
           d="m 141.73754,235.25109 c 1.26195,-6.15834 -7.23148,-7.09729 -9.67735,-4.17133 1.52092,-3.13413 -3.14355,-1.30652 -4.92873,-1.78859 -1.30425,1.2295 -1.05091,4.38142 -1.77504,6.32692 -0.96621,4.55761 -1.93243,9.11521 -2.89864,13.67282 1.82682,-0.58361 5.63237,1.27115 5.99492,-1.11688 1.05499,-5.0143 2.10998,-10.02861 3.16497,-15.04291 5.47927,-3.2264 4.31888,4.00538 3.29694,7.02682 -1.59667,3.94092 -0.87455,10.36938 4.92257,9.03509 3.29753,-0.12582 10.18478,-9.70128 3.96033,-4.32206 -5.24361,3.05864 -3.5487,-3.64704 -2.74179,-6.44362 0.22728,-1.05875 0.45455,-2.11751 0.68182,-3.17626 z"
           id="path3028" />
        <path
           d="m 158.85383,229.29117 c -2.68019,1.28226 -9.45934,9.43304 -7.00248,2.65194 0.76084,-3.55062 1.52169,-7.10123 2.28254,-10.65184 -1.90644,0.79647 -5.68122,-0.42261 -6.15795,1.91622 -1.85397,8.69448 -3.70793,17.38895 -5.5619,26.08342 1.82765,-0.58344 5.63054,1.27076 5.99651,-1.11654 0.68113,-3.21444 1.36225,-6.42888 2.04338,-9.64332 8.32129,-3.61179 0.50358,8.23247 5.62883,10.1744 4.10482,3.17701 12.42743,-5.71215 10.37097,-6.57445 -2.45145,4.46573 -8.70571,4.19256 -5.85545,-1.45678 2.42145,-4.30016 -6.10174,-5.95948 -4.59837,-6.54158 2.39129,-1.61383 4.78257,-3.22765 7.17386,-4.84147 -1.43998,0 -2.87996,0 -4.31994,0 z"
           id="path3030" />
        <path
           d="m 177.02509,229.29117 c -1.05332,4.93327 -2.10664,9.86654 -3.15996,14.79981 -4.81729,4.45206 -5.71377,-1.4785 -4.05176,-4.92188 0.69726,-3.29265 1.39453,-6.58529 2.09179,-9.87793 -1.82758,0.58345 -5.63071,-1.2708 -5.99638,1.11657 -0.87893,5.19341 -2.69053,10.3045 -2.79056,15.57024 0.9305,6.2108 9.37974,1.36745 10.11349,1.01823 -0.68612,4.10587 -10.72149,4.14007 -6.44882,10.47912 4.60461,4.88586 11.55682,-0.82131 11.39256,-6.47425 -0.15654,-4.48287 8.01504,-3.02196 6.92649,-8.46993 1.49337,-4.51821 -7.31559,8.93374 -5.56277,2.04691 1.08195,-5.09563 2.1639,-10.19126 3.24585,-15.28689 -1.91998,0 -3.83995,0 -5.75993,0 z m -8.87988,25.11967 c 0.69827,-4.25184 6.37579,-5.22124 3.46745,-0.31687 -0.41141,1.78135 -3.03083,2.34306 -3.46745,0.31687 z"
           id="path3032" />
        <path
           d="m 212.64751,242.091 c -3.81247,6.86299 -15.34514,3.87366 -12.74125,-4.56486 0.54361,-5.72313 1.42516,-12.97685 6.86636,-16.12791 6.04356,-1.75084 2.31272,5.80167 3.37992,6.74295 8.10423,0.13984 1.93709,-11.88963 -4.34714,-8.77079 -8.64601,0.61045 -11.91242,10.33079 -12.14422,17.71041 -1.43625,6.36 3.07469,13.88295 10.20815,12.40731 3.57116,0.0742 10.88765,-4.12211 8.77818,-7.39711 z"
           id="path3034" />
        <path
           d="m 230.01129,235.25109 c 1.25668,-6.13257 -7.16555,-7.08654 -9.64046,-4.21201 0.69352,-3.24927 1.38704,-6.49854 2.08056,-9.74781 -1.90644,0.79647 -5.68122,-0.42261 -6.15795,1.91622 -1.85397,8.69448 -3.70793,17.38895 -5.5619,26.08342 1.8282,-0.58332 5.62936,1.27051 5.99755,-1.11632 1.06744,-5.01449 2.13489,-10.02898 3.20233,-15.04347 5.4481,-3.21136 4.26855,4.0258 3.25695,7.02682 -1.61138,3.94722 -0.84803,10.4181 4.95683,9.01196 2.39881,-0.7403 9.88704,-6.51932 7.30602,-7.0389 -2.89576,4.54129 -9.48035,4.16835 -6.52098,-1.8438 0.36035,-1.6787 0.7207,-3.35741 1.08105,-5.03611 z"
           id="path3036" />
        <path
           d="m 245.79635,229.29117 c -2.93898,-0.10865 -10.74443,0.58684 -11.89355,6.52936 -1.89344,4.58532 -3.43411,14.50012 4.33849,13.62709 3.55918,-0.77126 4.33771,-4.95063 6.88788,-0.57108 4.09918,2.52726 12.63411,-5.84643 10.66705,-6.74554 -2.5564,4.22776 -9.4757,4.43909 -6.647,-1.47315 0.80235,-3.78889 1.60471,-7.57779 2.40706,-11.36668 -1.91998,0 -3.83995,0 -5.75993,0 z m -2.59996,2.27997 c 3.66895,0.33866 0.52592,4.67273 0.62278,7.04778 -0.70354,2.8538 -0.90906,9.0573 -5.23773,7.07204 -1.72369,-4.05115 -0.17068,-12.58466 4.61495,-14.11982 z"
           id="path3038" />
        <path
           d="m 271.11254,235.25109 c 1.26195,-6.15834 -7.23148,-7.09729 -9.67735,-4.17133 1.52092,-3.13413 -3.14355,-1.30652 -4.92873,-1.78859 -1.30425,1.2295 -1.05091,4.38142 -1.77504,6.32692 -0.96621,4.55761 -1.93243,9.11521 -2.89864,13.67282 1.82682,-0.58361 5.63237,1.27115 5.99492,-1.11688 1.05499,-5.0143 2.10998,-10.02861 3.16497,-15.04291 5.47927,-3.2264 4.31888,4.00538 3.29694,7.02682 -1.59667,3.94092 -0.87455,10.36938 4.92257,9.03509 3.29753,-0.12582 10.18478,-9.70128 3.96033,-4.32206 -5.24361,3.05864 -3.5487,-3.64704 -2.74179,-6.44362 0.22728,-1.05875 0.45455,-2.11751 0.68182,-3.17626 z"
           id="path3040" />
      </g>
    </g>
  </g>
</svg>
